<?xml version="1.0" encoding="UTF-8"?>
<svg version="1.1" xmlns="http://www.w3.org/2000/svg" width="460" height="456">
<path d="M0 0 C4.45657975 3.87042447 8.74245501 7.9132334 13 12 C13.51304687 12.48581543 14.02609375 12.97163086 14.5546875 13.47216797 C43.40991889 40.87182138 64.81032138 79.57316645 73.125 118.375 C73.37636719 119.50421875 73.62773437 120.6334375 73.88671875 121.796875 C86.59127989 179.93188251 75.46054167 239.97292935 43.625 290.125 C37.16674847 300.0721599 29.89237625 309.29069553 21.8125 317.9765625 C19.85019557 320.07089533 19.85019557 320.07089533 18 323 C17.34 323 16.68 323 16 323 C15.73703125 323.598125 15.4740625 324.19625 15.203125 324.8125 C13.93015843 327.12698468 12.7669742 328.31626502 10.75 330 C8.11461275 332.2182756 5.49239568 334.44140747 2.921875 336.734375 C-5.5729841 344.25920717 -14.45352574 350.86850616 -24 357 C-24.65806641 357.42522949 -25.31613281 357.85045898 -25.99414062 358.28857422 C-76.09181387 390.25718269 -138.29188868 397.75143889 -195.69726562 385.23632812 C-205.72954581 382.89121707 -215.43035565 379.8029598 -225 376 C-225.86850586 375.6587207 -226.73701172 375.31744141 -227.63183594 374.96582031 C-254.49362036 364.26798575 -277.84261759 348.44971114 -298.58886719 328.36425781 C-299.92544251 327.07208084 -301.27868122 325.79720491 -302.6328125 324.5234375 C-309.51043513 317.90453422 -315.28917559 310.61789114 -321 303 C-321.63421875 302.1649292 -321.63421875 302.1649292 -322.28125 301.31298828 C-350.81369769 263.5855135 -365.52813751 217.51513118 -365.3125 170.375 C-365.31067719 169.54339355 -365.30885437 168.71178711 -365.30697632 167.85498047 C-365.25856024 154.69590167 -364.58828479 141.93384847 -362 129 C-361.82839355 128.10506836 -361.65678711 127.21013672 -361.47998047 126.28808594 C-354.57410428 90.95024228 -339.38379302 57.51228755 -316 30 C-314.98920109 28.7867767 -313.97879624 27.57322499 -312.96875 26.359375 C-289.71290934 -1.37297649 -260.47730996 -22.30808122 -227 -36 C-226.21802246 -36.32339355 -225.43604492 -36.64678711 -224.63037109 -36.97998047 C-150.07597964 -67.39667705 -61.1570574 -51.42947168 0 0 Z M-151 46 C-157.938548 56.49081898 -161.77470591 69.34982724 -166.25390625 81 C-168.49467486 86.78484141 -170.89463196 92.48470116 -173.35913086 98.17724609 C-175.2206414 102.49202068 -177.01798353 106.83280119 -178.8125 111.17578125 C-179.3143129 112.38982887 -179.3143129 112.38982887 -179.82626343 113.62840271 C-180.5236786 115.31640904 -181.22089948 117.00449567 -181.91793823 118.69265747 C-187.69371742 132.6767316 -193.51216463 146.6411075 -199.4375 160.5625 C-200.58212651 163.25256365 -201.72670432 165.94264799 -202.87109375 168.6328125 C-203.14150482 169.26847137 -203.41191589 169.90413025 -203.69052124 170.55905151 C-211.12771406 188.05446048 -218.33255443 205.64735789 -225.56610107 223.22761536 C-228.9532918 231.4595331 -232.34285045 239.69046091 -235.74273682 247.91714478 C-236.46829321 249.6732579 -237.19290838 251.42975982 -237.91748047 253.1862793 C-238.59254639 254.81883667 -238.59254639 254.81883667 -239.28125 256.484375 C-239.71695313 257.53947266 -240.15265625 258.59457031 -240.6015625 259.68164062 C-241.61590532 262.08857981 -242.64969192 264.47921044 -243.7109375 266.86523438 C-243.99352417 267.50591858 -244.27611084 268.14660278 -244.56726074 268.80670166 C-245.36497195 270.60982148 -246.17150691 272.40903 -246.97851562 274.20800781 C-247.31560547 275.12936523 -247.65269531 276.05072266 -248 277 C-247.67 277.66 -247.34 278.32 -247 279 C-242.75005737 279.05805933 -238.50021676 279.09361654 -234.25 279.125 C-232.44015625 279.15013672 -232.44015625 279.15013672 -230.59375 279.17578125 C-228.85351562 279.18544922 -228.85351562 279.18544922 -227.078125 279.1953125 C-225.47565918 279.21102295 -225.47565918 279.21102295 -223.84082031 279.22705078 C-220.89680766 278.99175242 -219.35713178 278.76540908 -217 277 C-215.62814588 274.58606721 -215.62814588 274.58606721 -214.6171875 271.60546875 C-214.18100098 270.44402344 -213.74481445 269.28257812 -213.29541016 268.0859375 C-213.06525208 267.45397461 -212.83509399 266.82201172 -212.59796143 266.17089844 C-211.32919726 262.69012508 -210.01210429 259.22752213 -208.703125 255.76171875 C-208.41817169 255.00329681 -208.13321838 254.24487488 -207.83963013 253.46347046 C-203.92531426 243.08045469 -199.76136956 232.79600251 -195.625 222.5 C-194.85645593 220.58363848 -194.08806111 218.6672171 -193.31982422 216.75073242 C-192.94983307 215.82806076 -192.57984192 214.9053891 -192.19863892 213.95475769 C-191.47594696 212.15243042 -190.75342878 210.35003346 -190.03109741 208.54756165 C-188.4053595 204.4929792 -186.77460495 200.44066014 -185.12792969 196.39453125 C-184.84420502 195.69428833 -184.56048035 194.99404541 -184.26815796 194.27258301 C-183.5175826 192.42098785 -182.76356971 190.57078718 -182.00927734 188.72070312 C-180.88406598 186.17112282 -180.88406598 186.17112282 -181 184 C-176.29187638 185.47568054 -173.10246225 188.26484763 -169.5 191.5 C-164.8599295 195.57510691 -160.17017001 199.51687429 -155.25 203.25 C-154.71197754 203.65855225 -154.17395508 204.06710449 -153.61962891 204.48803711 C-153.09288574 204.88772705 -152.56614258 205.28741699 -152.0234375 205.69921875 C-144.91065857 211.11191486 -138.01317581 216.79536152 -131.1015625 222.4609375 C-118.62485405 232.6825238 -106.1262144 242.89021539 -93.40625 252.80859375 C-92.22912617 253.72651057 -91.05204246 254.64447884 -89.875 255.5625 C-89.30152832 256.00964355 -88.72805664 256.45678711 -88.13720703 256.91748047 C-84.08615998 260.09610027 -80.15469258 263.39398157 -76.25 266.75 C-65.16793049 276.81447558 -65.16793049 276.81447558 -51.31640625 280.27734375 C-46.37091064 279.68521864 -43.71279013 276.84409358 -40.625 273.1875 C-38.32660545 268.67911068 -38.29090102 265.3069938 -39.75048828 260.55834961 C-40.8535121 257.63419579 -42.03613352 254.75492209 -43.25 251.875 C-43.69456543 250.79331543 -44.13913086 249.71163086 -44.59716797 248.59716797 C-45.55441623 246.27280087 -46.51733843 243.95076395 -47.48535156 241.63085938 C-49.0202659 237.95141934 -50.53958952 234.26574975 -52.0546875 230.578125 C-55.01658913 223.37711364 -58.00330813 216.18661196 -61 209 C-61.36834961 208.11650879 -61.73669922 207.23301758 -62.11621094 206.32275391 C-65.79901864 197.50377683 -69.54832812 188.71414347 -73.32006836 179.93286133 C-81.85322643 160.06503262 -90.15894277 140.11478596 -98.26855469 120.07095337 C-102.51824463 109.57233588 -106.87486846 99.1252644 -111.31469727 88.70532227 C-113.73580542 83.01619036 -116.10813721 77.31482378 -118.375 71.5625 C-120.72797642 65.61244469 -123.27323969 59.78740963 -126 54 C-126.50660156 52.8553125 -126.50660156 52.8553125 -127.0234375 51.6875 C-128.99471486 47.39800046 -130.64782597 44.22238674 -135 42 C-141.66791332 41.03451029 -146.03116595 41.11370472 -151 46 Z " fill="#CB0701" transform="translate(374,60)"/>
<path d="M0 0 C3 1 3 1 4.2199707 3.22021484 C4.81684692 4.70062256 4.81684692 4.70062256 5.42578125 6.2109375 C6.11522827 7.89823975 6.11522827 7.89823975 6.81860352 9.61962891 C7.31680451 10.87132556 7.81476248 12.12311897 8.3125 13.375 C8.83885038 14.67533698 9.36613254 15.97529713 9.89428711 17.27490234 C11.3157635 20.7819582 12.72262089 24.2946934 14.12524414 27.80932617 C14.99871366 29.99677858 15.87486621 32.18313637 16.75195312 34.36914062 C19.42481027 41.03132435 22.09157893 47.6958976 24.74990845 54.3638916 C28.36893402 63.44003896 32.03578064 72.49581947 35.73095703 81.54125977 C39.47857011 90.71514723 43.20817642 99.89624002 46.93118286 109.08013916 C47.59323838 110.71328307 48.2554057 112.34638167 48.91769409 113.97943115 C50.42776393 117.70296357 51.93637626 121.42706226 53.44091797 125.15283203 C54.3925329 127.50771614 55.35532333 129.85651073 56.32861328 132.20263672 C56.69583496 133.09354004 57.06305664 133.98444336 57.44140625 134.90234375 C57.74892822 135.63831787 58.0564502 136.37429199 58.37329102 137.13256836 C59 139 59 139 59 142 C54.22093711 141.5544201 51.60734542 139.29984761 48.1875 136.1875 C43.24462799 131.84184982 38.17031961 127.78333049 32.875 123.875 C27.35519978 119.79029563 21.98109593 115.58953632 16.6953125 111.203125 C13.20264676 108.34825039 9.62696807 105.60783454 6.04394531 102.8684082 C0.25941572 98.44329408 -5.46124174 93.93879632 -11.18115234 89.43066406 C-13.09319768 87.92669283 -15.00904977 86.42768105 -16.92578125 84.9296875 C-17.56588135 84.42880615 -18.20598145 83.9279248 -18.86547852 83.41186523 C-20.09564981 82.44943429 -21.32657356 81.48796412 -22.55834961 80.52758789 C-24.81110283 78.76312263 -26.97445471 77.02554529 -29 75 C-28.8309476 68.11581062 -25.76898339 62.06776681 -23.125 55.8125 C-22.123341 53.4017303 -21.12339579 50.99024795 -20.125 48.578125 C-19.73950485 47.64970543 -19.73950485 47.64970543 -19.34622192 46.70252991 C-16.04335419 38.72907718 -12.92404808 30.68414697 -9.79345703 22.6418457 C-1.56936383 1.56936383 -1.56936383 1.56936383 0 0 Z " fill="#CB0702" transform="translate(233,146)"/>
<path d="M0 0 C5.07554794 0.77411776 7.79196753 3.05353088 11.5 6.4375 C12.74241306 7.53784783 13.98725813 8.63545503 15.234375 9.73046875 C16.17506836 10.55683838 16.17506836 10.55683838 17.13476562 11.39990234 C19.92446895 13.79305883 22.82072157 16.0313801 25.75 18.25 C26.28802246 18.65847168 26.82604492 19.06694336 27.38037109 19.48779297 C27.90711426 19.88756348 28.43385742 20.28733398 28.9765625 20.69921875 C33.38323463 24.05261654 37.69675395 27.51545328 42 31 C42.96421875 31.77730469 43.9284375 32.55460937 44.921875 33.35546875 C45.89640625 34.14566406 46.8709375 34.93585938 47.875 35.75 C48.75929688 36.46671875 49.64359375 37.1834375 50.5546875 37.921875 C52.8253141 39.85154489 54.9279849 41.86052395 57 44 C52.63436384 42.90859096 49.47625971 41.85549904 46 39 C44.515 38.505 44.515 38.505 43 38 C42.360625 37.175 41.72125 36.35 41.0625 35.5 C38.80572706 32.76451765 38.22721485 32.7530168 35 32 C34.3162955 30.67532254 33.65035814 29.34136367 33 28 C30.9664052 26.73195434 30.9664052 26.73195434 29 26 C29 25.34 29 24.68 29 24 C27.68 23.34 26.36 22.68 25 22 C25 21.34 25 20.68 25 20 C23.68 19.67 22.36 19.34 21 19 C21 18.34 21 17.68 21 17 C19.02 17 17.04 17 15 17 C15 15.68 15 14.36 15 13 C13.35666496 11.96210419 11.68756133 10.96432076 10 10 C8.6875 7.8125 8.6875 7.8125 8 6 C6.02 6 4.04 6 2 6 C-1.44890796 12.52071437 -4.04263781 19.19856597 -6.5625 26.125 C-11.07417677 38.49256803 -11.07417677 38.49256803 -14 44 C-14.57635936 45.28554227 -15.14195429 46.57608164 -15.6875 47.875 C-16.120625 48.90625 -16.55375 49.9375 -17 51 C-17.66 51 -18.32 51 -19 51 C-19.33 51.99 -19.66 52.98 -20 54 C-20.33 53.34 -20.66 52.68 -21 52 C-20.17162472 49.52383678 -19.27491944 47.15591502 -18.28125 44.74609375 C-17.98569214 44.01238052 -17.69013428 43.2786673 -17.38562012 42.52272034 C-16.43095975 40.15798636 -15.46560346 37.7977837 -14.5 35.4375 C-13.87951244 33.90457837 -13.25971341 32.37137785 -12.640625 30.83789062 C-8.47522386 20.53895274 -4.23912157 10.26876578 0 0 Z " fill="#B11316" transform="translate(193,244)"/>
<path d="M0 0 C0.33 0 0.66 0 1 0 C1.6550681 3.58170663 2.29727272 7.16561336 2.9375 10.75 C3.11990234 11.74644531 3.30230469 12.74289063 3.49023438 13.76953125 C10.00655752 50.49789805 5.898178 91.31569069 -8 126 C-8.99 126.99 -8.99 126.99 -10 128 C-11.28226877 123.61415078 -10.61773335 120.85320006 -9.1875 116.5625 C-8.83042969 115.47066406 -8.47335937 114.37882812 -8.10546875 113.25390625 C-7.37522802 111.10446975 -6.63836685 108.95726978 -5.89453125 106.8125 C-4.88664073 103.91574786 -4.88664073 103.91574786 -4.5 100.4375 C-4 97 -4 97 -3.02197266 94.59667969 C-2.00454898 92.01155827 -1.52571945 89.76054906 -1.1484375 87.015625 C-1.01953125 86.07976562 -0.890625 85.14390625 -0.7578125 84.1796875 C-0.63148438 83.21289062 -0.50515625 82.24609375 -0.375 81.25 C-0.17390625 79.82300781 -0.17390625 79.82300781 0.03125 78.3671875 C0.63674635 73.85685753 1.07266162 69.47601795 1.0234375 64.921875 C1 61 1 61 2 59 C2.15225426 57.48705252 2.24918931 55.96832155 2.31640625 54.44921875 C2.37948975 53.06802856 2.37948975 53.06802856 2.44384766 51.65893555 C2.48300293 50.67836182 2.5221582 49.69778809 2.5625 48.6875 C2.6251001 47.20020386 2.6251001 47.20020386 2.68896484 45.68286133 C3.20847935 34.84066893 3.20847935 34.84066893 3 24 C2.67 23.67 2.34 23.34 2 23 C1.67553663 19.89957227 1.48665559 16.7979275 1.28125 13.6875 C1.29392201 11.08403248 1.29392201 11.08403248 0 10 C-0.07205511 8.31391034 -0.08386068 6.62499341 -0.0625 4.9375 C-0.05347656 4.01839844 -0.04445313 3.09929687 -0.03515625 2.15234375 C-0.02355469 1.44207031 -0.01195312 0.73179687 0 0 Z " fill="#AF1311" transform="translate(447,182)"/>
<path d="M0 0 C0.99 -0.33 1.98 -0.66 3 -1 C9.00632977 0.81323163 12.76274217 3.58658551 16 9 C17.43311359 12.50779547 18.6597346 16.04270257 19.84765625 19.640625 C20.76781014 22.32310754 21.73884749 24.69470695 23.0625 27.1875 C25.09152941 31.01019141 26.48573721 34.97149344 27.92578125 39.046875 C31.26070511 48.36870661 31.26070511 48.36870661 36 57 C35.625 60.1875 35.625 60.1875 35 63 C32.07215568 59.54646206 30.4815372 55.71706863 28.8203125 51.55859375 C28.52567108 50.83567642 28.23102966 50.11275909 27.92745972 49.36793518 C26.98777535 47.05999051 26.05596077 44.74897568 25.125 42.4375 C23.90152721 39.41410434 22.67467753 36.39209811 21.4453125 33.37109375 C21.14896408 32.64227997 20.85261566 31.91346619 20.54728699 31.16256714 C18.18006979 25.3713768 15.65155917 19.66686342 13 14 C12.31151886 12.50045008 11.62384918 11.00052692 10.9375 9.5 C9.51009316 6.39522568 7.960983 4.75156741 5 3 C0.03667484 2.11237106 -4.48318592 2.05620457 -8.8125 4.75 C-14.68243605 13.47104784 -18.41574459 23.16708694 -22 33 C-22.33 33 -22.66 33 -23 33 C-22.67 29.37 -22.34 25.74 -22 22 C-21.01 22 -20.02 22 -19 22 C-19 20.35 -19 18.7 -19 17 C-18.34 17 -17.68 17 -17 17 C-17.04125 15.88625 -17.0825 14.7725 -17.125 13.625 C-17 10 -17 10 -15 8 C-14.29289322 6.35008418 -13.62056011 4.68437744 -13 3 C-12.01 3 -11.02 3 -10 3 C-10 2.34 -10 1.68 -10 1 C-6.37854406 -1.36787504 -4.12897988 -0.79065572 0 0 Z " fill="#B61518" transform="translate(234,100)"/>
<path d="M0 0 C1.29395307 3.88185921 0.41439168 4.99858083 -1.203125 8.69921875 C-1.68910156 9.82650391 -2.17507812 10.95378906 -2.67578125 12.11523438 C-3.19527344 13.29408203 -3.71476563 14.47292969 -4.25 15.6875 C-5.2566391 18.00328484 -6.26188116 20.31967753 -7.265625 22.63671875 C-7.9781543 24.27713135 -7.9781543 24.27713135 -8.70507812 25.95068359 C-10.25390181 29.59789473 -11.65788229 33.27240594 -13 37 C-8.72918086 37.02897435 -4.45838691 37.04678996 -0.1875 37.0625 C1.02744141 37.07087891 2.24238281 37.07925781 3.49414062 37.08789062 C4.65751953 37.09111328 5.82089844 37.09433594 7.01953125 37.09765625 C8.09307861 37.10289307 9.16662598 37.10812988 10.27270508 37.11352539 C13.09499365 37.12194588 13.09499365 37.12194588 16 36 C17.24950052 33.44598152 17.24950052 33.44598152 18.1875 30.4375 C18.53167969 29.42558594 18.87585938 28.41367187 19.23046875 27.37109375 C19.48441406 26.58863281 19.73835938 25.80617188 20 25 C20.33 25 20.66 25 21 25 C21.20741544 30.0816782 20.69611779 34.19433294 19 39 C15.64837876 42.35162124 11.26560926 41.29711433 6.7109375 41.32226562 C5.70498535 41.31900269 5.70498535 41.31900269 4.67871094 41.31567383 C2.63942618 41.31252229 0.60160438 41.33593792 -1.4375 41.36132812 C-3.36722656 41.36229492 -3.36722656 41.36229492 -5.3359375 41.36328125 C-6.51720215 41.36626221 -7.6984668 41.36924316 -8.91552734 41.37231445 C-12.25239148 40.96953483 -13.66802059 40.38768979 -16 38 C-16.171875 35.51953125 -16.171875 35.51953125 -15.75 32.8125 C-15.62109375 31.91144531 -15.4921875 31.01039063 -15.359375 30.08203125 C-15.24078125 29.39496094 -15.1221875 28.70789063 -15 28 C-14.34 28 -13.68 28 -13 28 C-12.81824219 27.41992188 -12.63648437 26.83984375 -12.44921875 26.2421875 C-10.9581894 21.60852707 -9.31666424 17.30237645 -7 13 C-6.34 13 -5.68 13 -5 13 C-5 11.35 -5 9.7 -5 8 C-4.34 8 -3.68 8 -3 8 C-2.87625 7.236875 -2.7525 6.47375 -2.625 5.6875 C-2 3 -2 3 0 0 Z " fill="#BF0F0E" transform="translate(140,301)"/>
<path d="M0 0 C1.1274979 3.38249371 0.72989753 5.55611729 0 9 C0.00533725 10.95876927 0.04874189 12.91770844 0.125 14.875 C0.18354445 20.17002056 -0.57499983 23.34399968 -3 28 C-3.92232865 30.96055609 -4.12638233 33.62762877 -4.12939453 36.72094727 C-4.13254669 37.65193741 -4.13569885 38.58292755 -4.13894653 39.54212952 C-4.1369223 40.54014084 -4.13489807 41.53815216 -4.1328125 42.56640625 C-4.13376923 43.59684555 -4.13472595 44.62728485 -4.13571167 45.68894958 C-4.13639162 47.86514344 -4.1345502 50.04133934 -4.13037109 52.2175293 C-4.12501482 55.55326881 -4.13032515 58.88887402 -4.13671875 62.22460938 C-4.13605804 64.33854196 -4.13477703 66.45247447 -4.1328125 68.56640625 C-4.13483673 69.5664418 -4.13686096 70.56647736 -4.13894653 71.59681702 C-4.13421829 72.98857399 -4.13421829 72.98857399 -4.12939453 74.40844727 C-4.12859894 75.22467056 -4.12780334 76.04089386 -4.12698364 76.8818512 C-4.08029672 79.19059168 -4.08029672 79.19059168 -3 82 C-2.835 83.175625 -2.67 84.35125 -2.5 85.5625 C-2.20526911 88.85097245 -2.20526911 88.85097245 -1 91 C-1.16780163 93.69565202 -1.61155645 96.32405554 -2 99 C-2.66 99 -3.32 99 -4 99 C-10.59694755 66.25086751 -7.8375398 32.22541745 0 0 Z " fill="#A21112" transform="translate(16,171)"/>
<path d="M0 0 C-3.3 0 -6.6 0 -10 0 C-10 -0.66 -10 -1.32 -10 -2 C-11.7325 -1.9071875 -11.7325 -1.9071875 -13.5 -1.8125 C-16.63264634 -1.80154669 -18.88139754 -2.196046 -21.75 -3.4375 C-26.96255928 -5.64762514 -32.40492976 -5.7295716 -38 -6 C-38 -6.66 -38 -7.32 -38 -8 C-44.00992541 -8.0249869 -50.01981963 -8.04299384 -56.02978516 -8.05493164 C-58.06820198 -8.05991594 -60.10661532 -8.06670579 -62.14501953 -8.07543945 C-81.22872533 -8.64709229 -81.22872533 -8.64709229 -100 -6 C-101.74886981 -5.93375493 -103.50002748 -5.91447405 -105.25 -5.9375 C-106.14203125 -5.94652344 -107.0340625 -5.95554687 -107.953125 -5.96484375 C-108.62859375 -5.97644531 -109.3040625 -5.98804688 -110 -6 C-110 -6.33 -110 -6.66 -110 -7 C-106.87564509 -7.48343366 -103.75040869 -7.96093059 -100.625 -8.4375 C-99.31982422 -8.63956055 -99.31982422 -8.63956055 -97.98828125 -8.84570312 C-70.67505574 -12.993267 -24.07870752 -16.05247168 0 0 Z " fill="#A50C0B" transform="translate(298,19)"/>
<path d="M0 0 C2.80457112 3.3460503 4.3008689 6.80744796 5.91796875 10.84765625 C6.18007645 11.50076279 6.44218414 12.15386932 6.7122345 12.82676697 C7.26218553 14.20145454 7.80914477 15.57734237 8.35327148 16.9543457 C9.18738958 19.06222096 10.03341085 21.16503207 10.88085938 23.26757812 C11.41477895 24.60648536 11.94800617 25.94566893 12.48046875 27.28515625 C12.96410889 28.50082275 13.44774902 29.71648926 13.94604492 30.96899414 C15 34 15 34 15 37 C9.97251512 36.59592178 7.05729566 33.9074103 3.4375 30.6875 C2.87353516 30.20087891 2.30957031 29.71425781 1.72851562 29.21289062 C-1.29784532 26.58296527 -4.2045288 23.87748991 -7 21 C-2.06128619 22.16205031 1.3077094 23.3077094 5 27 C5 27.99 5 28.98 5 30 C6.32 30 7.64 30 9 30 C8.33722122 26.78184082 7.16354173 24.20775581 5.625 21.3125 C2.54149303 15.27025225 -0.1767684 8.79166071 -1 2 C-0.67 1.34 -0.34 0.68 0 0 Z " fill="#BF1517" transform="translate(277,251)"/>
<path d="M0 0 C2.35710543 2.35710543 3.02104841 4.2615616 4.21484375 7.37109375 C4.64853271 8.49016113 5.08222168 9.60922852 5.52905273 10.76220703 C5.99384033 11.97505371 6.45862793 13.18790039 6.9375 14.4375 C7.92400995 16.98687413 8.91489194 19.53453902 9.90625 22.08203125 C10.15994858 22.7350824 10.41364716 23.38813354 10.67503357 24.06097412 C14.20207855 33.11949506 17.9056736 42.10607599 21.58984375 51.1015625 C22.19481689 52.5870459 22.19481689 52.5870459 22.81201172 54.10253906 C23.60919674 56.04684481 24.41829727 57.9863044 25.23876953 59.92089844 C25.61501465 60.82098633 25.99125977 61.72107422 26.37890625 62.6484375 C26.71607666 63.44169434 27.05324707 64.23495117 27.40063477 65.05224609 C28 67 28 67 27 69 C24.66289319 65.7764044 22.85928014 62.89609628 21.5625 59.125 C20.52820812 56.11873403 19.25771538 53.79008866 17.4375 51.1875 C14.80803504 47.19258588 14.26679598 43.55248161 13.59765625 38.875 C12.73954464 34.74709057 10.9468181 31.23310009 9.109375 27.4609375 C7.84863401 24.66422333 7.24783229 22.05659826 7 19 C6.01 18.67 5.02 18.34 4 18 C0.61137228 12.18606681 -0.49120673 6.6312909 0 0 Z " fill="#A41617" transform="translate(249,181)"/>
<path d="M0 0 C6.5610804 1.73139622 12.0868637 4.19396204 17 9 C17 9.66 17 10.32 17 11 C17.9075 11.28875 18.815 11.5775 19.75 11.875 C22.32202908 12.76531776 24.61346766 13.71494413 27 15 C27 15.66 27 16.32 27 17 C27.721875 17.103125 28.44375 17.20625 29.1875 17.3125 C32.27793421 18.06793947 34.41743841 19.15531315 37 21 C37 21.66 37 22.32 37 23 C38.051875 23.103125 39.10375 23.20625 40.1875 23.3125 C43.88628113 23.97949332 46.02986811 24.74990008 49 27 C49 27.66 49 28.32 49 29 C37.04854599 25.49698762 26.55503676 19.50982652 16.0625 12.9375 C15.2698877 12.4432251 14.47727539 11.9489502 13.66064453 11.43969727 C8.7396888 8.30189976 4.30366939 4.94837311 0 1 C0 0.67 0 0.34 0 0 Z " fill="#B41415" transform="translate(95,404)"/>
<path d="M0 0 C0.99 0 1.98 0 3 0 C3 1.65 3 3.3 3 5 C3.66 5 4.32 5 5 5 C5 5.66 5 6.32 5 7 C5.66 7 6.32 7 7 7 C7.18175781 7.56847656 7.36351562 8.13695312 7.55078125 8.72265625 C8.77627252 12.48711406 10.0213006 16.15576986 11.6875 19.75 C12.93340478 22.83509755 13.29740169 24.72858144 13 28 C13.99 28.33 14.98 28.66 16 29 C17.10501643 31.45592123 17.99015778 33.76443093 18.8125 36.3125 C19.05419922 36.98990234 19.29589844 37.66730469 19.54492188 38.36523438 C21.2319989 43.45632521 21.2319989 43.45632521 20.04956055 46.22729492 C19.70320557 46.8122876 19.35685059 47.39728027 19 48 C17.25676477 43.86049455 15.51533227 39.72023624 13.77539062 35.5793457 C13.1863375 34.17810843 12.59683724 32.77705901 12.00683594 31.3762207 C8.81692923 23.80155314 5.65297931 16.216693 2.5703125 8.59765625 C2.07547363 7.37699463 1.58063477 6.15633301 1.07080078 4.89868164 C0 2 0 2 0 0 Z " fill="#AD1816" transform="translate(269,164)"/>
<path d="M0 0 C0.33 0 0.66 0 1 0 C1.37402612 5.11169026 0.13463962 8.38917842 -2 13 C-2.37308631 14.32276056 -2.73046415 15.65232077 -3 17 C-3.66 17 -4.32 17 -5 17 C-5.18175781 17.79664063 -5.36351562 18.59328125 -5.55078125 19.4140625 C-6.87708137 25.00492761 -8.26084316 29.91299444 -11 35 C-11 35.99 -11 36.98 -11 38 C-11.66 38 -12.32 38 -13 38 C-13 38.99 -13 39.98 -13 41 C-13.99 41.495 -13.99 41.495 -15 42 C-15.66 42.99 -16.32 43.98 -17 45 C-16.4141048 39.8534433 -15.25787575 35.19321779 -13.5 30.3125 C-13.24516846 29.59642578 -12.99033691 28.88035156 -12.7277832 28.14257812 C-3.84534271 3.84534271 -3.84534271 3.84534271 0 0 Z " fill="#BB171A" transform="translate(34,126)"/>
<path d="M0 0 C3 1 3 1 4.42626953 3.69628906 C4.90692871 4.87416992 5.38758789 6.05205078 5.8828125 7.265625 C6.14254852 7.89603699 6.40228455 8.52644897 6.66989136 9.17596436 C7.21790891 10.51216077 7.76058998 11.85055638 8.29833984 13.19091797 C9.11801417 15.23259937 9.95390544 17.26700229 10.79296875 19.30078125 C15.2079528 30.11436777 15.2079528 30.11436777 16 35 C14.125 34.3125 14.125 34.3125 12 33 C11.28321648 31.35426503 10.62453513 29.68290763 10 28 C9.17510477 26.18364416 8.3415042 24.37122092 7.5 22.5625 C6.12199252 19.56472934 4.90256141 16.70227098 3.875 13.5625 C2.96572567 10.89962518 1.80811213 9.13685979 0 7 C-0.99 7.33 -1.98 7.66 -3 8 C-1.125 1.125 -1.125 1.125 0 0 Z " fill="#C11819" transform="translate(233,146)"/>
<path d="M0 0 C4.93488313 1.38628778 8.87129375 3.62662741 13.0625 6.5 C13.70646729 6.93489746 14.35043457 7.36979492 15.01391602 7.81787109 C21.54693789 12.27987624 27.80188413 17.0874967 34 22 C33.01 22.495 33.01 22.495 32 23 C31.01 22.67 30.02 22.34 29 22 C29 21.34 29 20.68 29 20 C26.69 20.33 24.38 20.66 22 21 C21.896875 20.360625 21.79375 19.72125 21.6875 19.0625 C21.460625 18.381875 21.23375 17.70125 21 17 C20.01 16.67 19.02 16.34 18 16 C16.64172029 14.35360035 15.30745749 12.68704193 14 11 C13.34 10.67 12.68 10.34 12 10 C12 9.34 12 8.68 12 8 C10.68 8 9.36 8 8 8 C8 7.34 8 6.68 8 6 C7.34 6 6.68 6 6 6 C6 6.99 6 7.98 6 9 C5.01 9 4.02 9 3 9 C3 8.34 3 7.68 3 7 C2.34 7 1.68 7 1 7 C1 6.34 1 5.68 1 5 C1.99 4.67 2.98 4.34 4 4 C2.68 3.34 1.36 2.68 0 2 C0 1.34 0 0.68 0 0 Z " fill="#B90E0C" transform="translate(339,37)"/>
<path d="M0 0 C0.66 0 1.32 0 2 0 C1.40689303 3.37600624 0.56539852 6.35895036 -0.76586914 9.51489258 C-1.30631615 10.8056646 -1.30631615 10.8056646 -1.85768127 12.12251282 C-2.24624802 13.0372789 -2.63481476 13.95204498 -3.03515625 14.89453125 C-3.43327011 15.84188644 -3.83138397 16.78924164 -4.24156189 17.76530457 C-5.51084499 20.78289571 -6.78657798 23.79771081 -8.0625 26.8125 C-8.92555722 28.86114829 -9.78819238 30.90997443 -10.65039062 32.95898438 C-12.76203877 37.97472837 -14.87898534 42.98821021 -17 48 C-17.33 48 -17.66 48 -18 48 C-18 45.69 -18 43.38 -18 41 C-16.515 40.505 -16.515 40.505 -15 40 C-14.93941406 39.30132812 -14.87882813 38.60265625 -14.81640625 37.8828125 C-14.69072266 36.51769531 -14.69072266 36.51769531 -14.5625 35.125 C-14.48128906 34.22007812 -14.40007812 33.31515625 -14.31640625 32.3828125 C-14 30 -14 30 -13 28 C-12.01 28 -11.02 28 -10 28 C-9.86722656 27.36191406 -9.73445312 26.72382813 -9.59765625 26.06640625 C-9.42105469 25.24011719 -9.24445313 24.41382813 -9.0625 23.5625 C-8.88847656 22.73878906 -8.71445313 21.91507813 -8.53515625 21.06640625 C-8 19 -8 19 -7 18 C-6.7279379 16.48295806 -6.48260919 14.96109017 -6.25 13.4375 C-5.27209499 8.28868194 -3.47137236 3.98317726 0 0 Z " fill="#AC1A20" transform="translate(197,162)"/>
<path d="M0 0 C0.99 0.495 0.99 0.495 2 1 C2.33 1.99 2.66 2.98 3 4 C3.7115625 4.680625 3.7115625 4.680625 4.4375 5.375 C6.37163054 7.38649576 7.00563338 9.41464679 8 12 C8.66 12.66 9.32 13.32 10 14 C12.07828238 18.84932556 12.17855281 22.82196838 12 28 C12.99 27.67 13.98 27.34 15 27 C15.48220263 28.87422152 15.96061833 30.74941754 16.4375 32.625 C16.70433594 33.66914063 16.97117187 34.71328125 17.24609375 35.7890625 C17.96452539 38.84891124 18.51976716 41.8948051 19 45 C16.66238059 42.1131405 15.18552763 39.38246102 13.8125 35.9375 C13.38839844 34.88691406 12.96429688 33.83632812 12.52734375 32.75390625 C12.28999512 32.16496582 12.05264648 31.57602539 11.80810547 30.96923828 C10.89695875 28.74890311 9.95288 26.54427263 9.00390625 24.33984375 C5.55952345 16.32119998 2.21966737 8.46248187 0 0 Z " fill="#A21618" transform="translate(289,212)"/>
<path d="M0 0 C-41.76464792 20.24952626 -41.76464792 20.24952626 -51.375 18.58984375 C-51.91125 18.39519531 -52.4475 18.20054687 -53 18 C-50.09399739 16.74335022 -48.20395416 16 -45 16 C-44.67 15.01 -44.34 14.02 -44 13 C-42.7625 12.9175 -41.525 12.835 -40.25 12.75 C-34.26863326 12.09281162 -28.52362478 10.37623469 -23 8 C-22.67 7.34 -22.34 6.68 -22 6 C-20.02 6 -18.04 6 -16 6 C-16 5.34 -16 4.68 -16 4 C-14.02 3.67 -12.04 3.34 -10 3 C-9.67 2.01 -9.34 1.02 -9 0 C-3.375 -1.125 -3.375 -1.125 0 0 Z " fill="#AB0F0F" transform="translate(337,425)"/>
<path d="M0 0 C4.32973401 2.77232222 8.2486896 5.8067882 12.125 9.1875 C17.4818664 13.80417038 23.00690566 18.076988 28.734375 22.22265625 C31 24 31 24 32 26 C28.83245565 25.37641185 26.62021505 24.27813869 23.9375 22.5 C21.54341042 20.91925755 19.75440404 19.91813468 17 19 C15.8125 16.4375 15.8125 16.4375 15 14 C13.68 14 12.36 14 11 14 C8.6875 11.875 8.6875 11.875 6 9 C3.70300339 6.9566301 1.35556036 4.97541229 -1 3 C-0.67 2.01 -0.34 1.02 0 0 Z " fill="#A6100F" transform="translate(250,288)"/>
<path d="M0 0 C1.30170704 3.90512111 0.38425806 5.07633612 -1.23828125 8.8046875 C-1.72876953 9.94550781 -2.21925781 11.08632813 -2.72460938 12.26171875 C-3.24861328 13.45410156 -3.77261719 14.64648438 -4.3125 15.875 C-5.32960134 18.22648713 -6.34653473 20.57804692 -7.36328125 22.9296875 C-7.82001221 23.97366699 -8.27674316 25.01764648 -8.74731445 26.09326172 C-9.55793668 27.97423389 -10.32307368 29.87574597 -11.03198242 31.79736328 C-12 34 -12 34 -14.125 35.3125 C-15.053125 35.6528125 -15.053125 35.6528125 -16 36 C-15.67 33.36 -15.34 30.72 -15 28 C-14.34 28 -13.68 28 -13 28 C-12.81824219 27.41992188 -12.63648437 26.83984375 -12.44921875 26.2421875 C-10.9581894 21.60852707 -9.31666424 17.30237645 -7 13 C-6.34 13 -5.68 13 -5 13 C-5 11.35 -5 9.7 -5 8 C-4.34 8 -3.68 8 -3 8 C-2.87625 7.236875 -2.7525 6.47375 -2.625 5.6875 C-2 3 -2 3 0 0 Z " fill="#B8100F" transform="translate(140,301)"/>
<path d="M0 0 C5.52370558 8.28555837 13.42819736 25.42545327 11.5625 35.3203125 C11.2840625 36.15175781 11.2840625 36.15175781 11 37 C10.89042969 36.36191406 10.78085937 35.72382813 10.66796875 35.06640625 C10.50941406 34.24011719 10.35085938 33.41382813 10.1875 32.5625 C10.03667969 31.73878906 9.88585937 30.91507813 9.73046875 30.06640625 C9.48941406 29.38449219 9.24835938 28.70257813 9 28 C8.01 27.67 7.02 27.34 6 27 C3.82406757 22.66604405 2.53004566 17.85619484 3 13 C2.01 12.67 1.02 12.34 0 12 C0.33 11.34 0.66 10.68 1 10 C0.67 9.01 0.34 8.02 0 7 C-0.03954234 4.66700175 -0.04401732 2.33291811 0 0 Z " fill="#B81315" transform="translate(435,144)"/>
<path d="M0 0 C2.89933109 5.59156709 4.25166799 9.58246635 4 16 C4.66 16 5.32 16 6 16 C6 18.31 6 20.62 6 23 C6.66 23 7.32 23 8 23 C8.33 25.64 8.66 28.28 9 31 C9.66 31 10.32 31 11 31 C11 31.66 11 32.32 11 33 C11.66 33 12.32 33 13 33 C13.99 38.445 13.99 38.445 15 44 C14.01 44.495 14.01 44.495 13 45 C9.79841232 37.90267509 7.1608039 30.7293842 4.8125 23.3125 C4.56290527 22.52963623 4.31331055 21.74677246 4.05615234 20.94018555 C-0.4224813 6.54846022 -0.4224813 6.54846022 0 0 Z " fill="#AD1517" transform="translate(13,271)"/>
<path d="M0 0 C0.66 0.33 1.32 0.66 2 1 C-3.45762814 8.26924166 -8.98812865 15.3122383 -15.1875 21.9765625 C-17.14980443 24.07089533 -17.14980443 24.07089533 -19 27 C-19.66 27 -20.32 27 -21 27 C-21.33 27.66 -21.66 28.32 -22 29 C-21.66903688 23.70459011 -18.52770257 19.75586243 -15 16 C-14.01 15.67 -13.02 15.34 -12 15 C-10.94978897 13.15028304 -10.94978897 13.15028304 -10 11 C-8.5625 8.75 -8.5625 8.75 -7 7 C-6.01 7 -5.02 7 -4 7 C-3.71125 6.21625 -3.4225 5.4325 -3.125 4.625 C-2 2 -2 2 0 0 Z " fill="#B81517" transform="translate(411,356)"/>
<path d="M0 0 C2.75622706 2.3747154 3.73711608 4.5087436 4.875 7.9375 C8.56358552 18.88430239 8.56358552 18.88430239 14 29 C13.625 32.1875 13.625 32.1875 13 35 C9.70944169 30.86079326 7.8935731 26.47549066 5.875 21.625 C5.33552734 20.36816406 5.33552734 20.36816406 4.78515625 19.0859375 C2.95180044 14.71884276 1.53274042 10.74494133 1 6 C0.814375 4.88625 0.62875 3.7725 0.4375 2.625 C0.293125 1.75875 0.14875 0.8925 0 0 Z " fill="#C41012" transform="translate(256,128)"/>
<path d="M0 0 C0.66 0.33 1.32 0.66 2 1 C1.67 1.99 1.34 2.98 1 4 C0.34 4 -0.32 4 -1 4 C-1.2475 4.969375 -1.495 5.93875 -1.75 6.9375 C-2.1625 7.948125 -2.575 8.95875 -3 10 C-5.125 10.875 -5.125 10.875 -7 11 C-7.33 12.65 -7.66 14.3 -8 16 C-8.66 16 -9.32 16 -10 16 C-10 16.99 -10 17.98 -10 19 C-10.66 18.67 -11.32 18.34 -12 18 C-12.66 18 -13.32 18 -14 18 C-14.99 17.34 -15.98 16.68 -17 16 C-12.35344118 11.24222036 -7.61171109 6.68207665 -2.56640625 2.34765625 C-1.68751602 1.59150381 -0.81982149 0.81982149 0 0 Z " fill="#C00909" transform="translate(88,59)"/>
<path d="M0 0 C0.33 0 0.66 0 1 0 C1.23120174 4.48531379 0.65706311 7.48175883 -1.1875 11.5625 C-5.02195788 20.31766446 -8.51519079 29.1842316 -11.421875 38.29296875 C-12 40 -12 40 -13 42 C-13.66 42 -14.32 42 -15 42 C-14.01 43.32 -13.02 44.64 -12 46 C-12.33 46.66 -12.66 47.32 -13 48 C-14.5625 46.9375 -14.5625 46.9375 -16 45 C-15.61111875 40.20898294 -14.49041223 36.21185277 -12.63671875 31.796875 C-12.16169922 30.65089844 -11.68667969 29.50492188 -11.19726562 28.32421875 C-10.69904297 27.14472656 -10.20082031 25.96523437 -9.6875 24.75 C-6.26406059 16.56095155 -2.94067704 8.37640954 0 0 Z " fill="#A41416" transform="translate(220,176)"/>
<path d="M0 0 C1.25445447 3.76336341 0.55718166 4.65964556 -1.01953125 8.21875 C-1.46490234 9.23324219 -1.91027344 10.24773437 -2.36914062 11.29296875 C-2.84544922 12.35128906 -3.32175781 13.40960938 -3.8125 14.5 C-4.27720703 15.55832031 -4.74191406 16.61664063 -5.22070312 17.70703125 C-8.68133574 25.52200361 -8.68133574 25.52200361 -11 29 C-11.66 27.02 -12.32 25.04 -13 23 C-12.34 22.67 -11.68 22.34 -11 22 C-10.14583423 19.54483241 -9.52931752 17.05913122 -8.87890625 14.54296875 C-7.95131548 11.85913944 -6.9084946 10.0939749 -5 8 C-4.34 8 -3.68 8 -3 8 C-3 5.69 -3 3.38 -3 1 C-2.01 0.67 -1.02 0.34 0 0 Z " fill="#AF1518" transform="translate(178,210)"/>
<path d="M0 0 C4.45508185 4.08043146 7.58221392 8.60271056 10.8125 13.6875 C11.31458984 14.45900391 11.81667969 15.23050781 12.33398438 16.02539062 C16 21.73639456 16 21.73639456 16 24 C15.34 24 14.68 24 14 24 C14 23.34 14 22.68 14 22 C12.35 21.67 10.7 21.34 9 21 C9.020625 20.236875 9.04125 19.47375 9.0625 18.6875 C9.12942841 15.89814214 9.12942841 15.89814214 8 13 C7.34 13 6.68 13 6 13 C6 12.34 6 11.68 6 11 C5.34 11 4.68 11 4 11 C0 4.5 0 4.5 0 0 Z " fill="#AE1317" transform="translate(407,96)"/>
<path d="M0 0 C1.32 0.33 2.64 0.66 4 1 C-2.83434497 7.48114885 -10.19266895 12.78706798 -18 18 C-18 15 -18 15 -16.8125 13.5625 C-15.38562222 12.33243295 -13.89072983 11.18125297 -12.375 10.0625 C-9.94788534 7.95474254 -9.33420036 7.11920338 -9 4 C-6.36 3.67 -3.72 3.34 -1 3 C-0.67 2.01 -0.34 1.02 0 0 Z " fill="#B51111" transform="translate(371,397)"/>
<path d="M0 0 C1 2 1 2 0.10375977 4.70556641 C-0.36231689 5.82624512 -0.82839355 6.94692383 -1.30859375 8.1015625 C-1.80810547 9.31328125 -2.30761719 10.525 -2.82226562 11.7734375 C-3.36051088 13.05736135 -3.89892455 14.34121462 -4.4375 15.625 C-4.97271455 16.91637291 -5.50722888 18.20803626 -6.04101562 19.5 C-7.35379733 22.66959907 -8.67373216 25.83602565 -10 29 C-10.33 29 -10.66 29 -11 29 C-11.29787234 20.21276596 -11.29787234 20.21276596 -9 16 C-8.34 15.67 -7.68 15.34 -7 15 C-6.30906104 12.42048126 -6.30906104 12.42048126 -5.875 9.4375 C-5.62363281 7.91962891 -5.62363281 7.91962891 -5.3671875 6.37109375 C-5.24601563 5.58863281 -5.12484375 4.80617187 -5 4 C-3.68 4 -2.36 4 -1 4 C-0.67 2.68 -0.34 1.36 0 0 Z " fill="#B2151A" transform="translate(210,133)"/>
<path d="M0 0 C2.475 0.495 2.475 0.495 5 1 C5 1.66 5 2.32 5 3 C6.423125 3.37125 6.423125 3.37125 7.875 3.75 C11.43303673 5.17321469 11.55234022 5.69106337 13 9 C15.0335948 10.26804566 15.0335948 10.26804566 17 11 C17 11.66 17 12.32 17 13 C17.5775 13.28875 18.155 13.5775 18.75 13.875 C19.4925 14.24625 20.235 14.6175 21 15 C21.70125 15.28875 22.4025 15.5775 23.125 15.875 C25.42031559 17.25218936 26.02079402 18.55198504 27 21 C23.21661255 19.3367717 20.10554393 16.90679065 16.875 14.375 C16.30821533 13.93422119 15.74143066 13.49344238 15.1574707 13.03930664 C13.43508909 11.6969368 11.71720454 10.34898334 10 9 C8.98550781 8.20722656 7.97101563 7.41445312 6.92578125 6.59765625 C1.77169843 2.53173928 1.77169843 2.53173928 0 1 C0 0.67 0 0.34 0 0 Z " fill="#AC1115" transform="translate(224,236)"/>
<path d="M0 0 C0.66 0 1.32 0 2 0 C2 0.99 2 1.98 2 3 C2.66 3.33 3.32 3.66 4 4 C5.78427931 6.67641896 6.35537884 7.93886048 7 10.9375 C7.88444932 14.68098315 8.65502429 17.76262235 11.5625 20.4375 C13.45263121 22.49199044 13.6324247 24.27994277 14 27 C14.66 27 15.32 27 16 27 C15.67 28.32 15.34 29.64 15 31 C0 6.9 0 6.9 0 0 Z " fill="#AD1519" transform="translate(27,316)"/>
<path d="M0 0 C0.99 0 1.98 0 3 0 C3 1.65 3 3.3 3 5 C3.66 5 4.32 5 5 5 C5 5.66 5 6.32 5 7 C5.66 7 6.32 7 7 7 C7.18175781 7.56847656 7.36351562 8.13695312 7.55078125 8.72265625 C8.77627252 12.48711406 10.0213006 16.15576986 11.6875 19.75 C12.93340478 22.83509755 13.29740169 24.72858144 13 28 C11.14552648 24.38212085 9.57035734 20.67378256 8 16.92578125 C7.15172947 14.83099269 7.15172947 14.83099269 5 14 C4.0540932 12.05372509 3.19016834 10.06705139 2.375 8.0625 C1.92898438 6.98097656 1.48296875 5.89945313 1.0234375 4.78515625 C0 2 0 2 0 0 Z " fill="#C71011" transform="translate(269,164)"/>
<path d="M0 0 C5.6786932 6.76034905 6.55165961 13.4506125 7 22 C3.98732456 19.20017663 3.17764463 16.97455063 2 13 C1.72800781 12.2575 1.45601563 11.515 1.17578125 10.75 C0.89089844 9.96625 0.60601562 9.1825 0.3125 8.375 C0.04050781 7.64023437 -0.23148437 6.90546875 -0.51171875 6.1484375 C-1.06161794 3.72888107 -0.78432755 2.32666294 0 0 Z " fill="#BD1717" transform="translate(277,251)"/>
<path d="M0 0 C0.4125 0.804375 0.825 1.60875 1.25 2.4375 C5.52154323 6.41780165 10.35389564 5.90234725 16 6 C16.33 6.99 16.66 7.98 17 9 C3.635 7.02 3.635 7.02 -10 5 C-10 4.67 -10 4.34 -10 4 C-7.03 4 -4.06 4 -1 4 C-0.67 2.68 -0.34 1.36 0 0 Z " fill="#A60C0C" transform="translate(192,441)"/>
<path d="M0 0 C1.28583984 0.10828125 1.28583984 0.10828125 2.59765625 0.21875 C9.88301569 0.85380073 9.88301569 0.85380073 17.1875 0.9375 C20 1 20 1 22 3 C22 3.99 22 4.98 22 6 C14.2501365 5.47458553 7.3549914 3.44408524 0 1 C0 0.67 0 0.34 0 0 Z " fill="#B20E0B" transform="translate(160,439)"/>
<path d="M0 0 C0.99 0.495 0.99 0.495 2 1 C2.33 1.99 2.66 2.98 3 4 C3.7115625 4.680625 3.7115625 4.680625 4.4375 5.375 C6.37163054 7.38649576 7.00563338 9.41464679 8 12 C8.66 12.66 9.32 13.32 10 14 C10.6328125 16.1640625 10.6328125 16.1640625 11.125 18.625 C11.37636719 19.85089844 11.37636719 19.85089844 11.6328125 21.1015625 C11.81457031 22.04128906 11.81457031 22.04128906 12 23 C11.34 23 10.68 23 10 23 C9.81824219 22.44570312 9.63648438 21.89140625 9.44921875 21.3203125 C9.19785156 20.59585938 8.94648438 19.87140625 8.6875 19.125 C8.44386719 18.40570313 8.20023437 17.68640625 7.94921875 16.9453125 C7.03664453 14.66005095 7.03664453 14.66005095 4 13 C2.83203125 10.46875 2.83203125 10.46875 1.8125 7.5 C1.46832031 6.5203125 1.12414062 5.540625 0.76953125 4.53125 C0 2 0 2 0 0 Z " fill="#BA171A" transform="translate(289,212)"/>
<path d="M0 0 C7.15462324 5.96218604 14.16842923 11.94738206 19 20 C16.0280615 18.87548273 13.66559313 17.77706209 11 16 C10.33333333 14.33333333 9.66666667 12.66666667 9 11 C8.01 10.34 7.02 9.68 6 9 C6 8.34 6 7.68 6 7 C5.01 7 4.02 7 3 7 C1.3125 5.75 1.3125 5.75 0 4 C0 2.68 0 1.36 0 0 Z " fill="#A01619" transform="translate(384,70)"/>
<path d="M0 0 C0.87840996 3.09720845 0.99435406 4.90645403 0 8 C-0.66 8 -1.32 8 -2 8 C-1.95875 9.0725 -1.9175 10.145 -1.875 11.25 C-2.02399927 15.71997818 -2.87595646 17.56122427 -5.5625 21 C-7.03193986 23.04443806 -7.56164648 24.54522028 -8 27 C-8.66 27 -9.32 27 -10 27 C-7.58650007 17.64481454 -3.75743534 8.873724 0 0 Z " fill="#AD1314" transform="translate(171,299)"/>
<path d="M0 0 C0.33 0.66 0.66 1.32 1 2 C1.66 2 2.32 2 3 2 C3 3.32 3 4.64 3 6 C3.66 6 4.32 6 5 6 C5.33 7.32 5.66 8.64 6 10 C6.66 10 7.32 10 8 10 C10.23269231 16.45 10.23269231 16.45 9.0546875 19.234375 C8.70664062 19.81703125 8.35859375 20.3996875 8 21 C6.65757579 18.06657102 5.32765933 15.12763748 4 12.1875 C3.6184375 11.35412109 3.236875 10.52074219 2.84375 9.66210938 C2.4828125 8.85966797 2.121875 8.05722656 1.75 7.23046875 C1.41484375 6.49207764 1.0796875 5.75368652 0.734375 4.99291992 C0 3 0 3 0 0 Z " fill="#B21316" transform="translate(308,257)"/>
<path d="M0 0 C0 3.20395416 -0.74335022 5.09399739 -2 8 C-2.99 8 -3.98 8 -5 8 C-5.226875 8.9075 -5.45375 9.815 -5.6875 10.75 C-7.19189738 14.47517446 -8.66834773 15.83442602 -12 18 C-12.66 18 -13.32 18 -14 18 C-12.39435789 14.32872101 -10.110728 11.51294759 -7.5625 8.4375 C-6.78003906 7.48746094 -5.99757813 6.53742188 -5.19140625 5.55859375 C-3.52174835 3.60917143 -1.85359593 1.77015431 0 0 Z " fill="#A91416" transform="translate(66,81)"/>
<path d="M0 0 C0.99 0.33 1.98 0.66 3 1 C3.94921875 2.9609375 3.94921875 2.9609375 4.6875 5.375 C4.93886719 6.16648437 5.19023437 6.95796875 5.44921875 7.7734375 C6 10 6 10 6 13 C6.66 13 7.32 13 8 13 C8 14.32 8 15.64 8 17 C8.66 17 9.32 17 10 17 C10 18.65 10 20.3 10 22 C10.66 22 11.32 22 12 22 C12 24.31 12 26.62 12 29 C8.88387376 24.32581064 7.02045309 19.11483287 4.875 13.9375 C4.40707031 12.82310547 3.93914062 11.70871094 3.45703125 10.56054688 C3.01488281 9.49771484 2.57273437 8.43488281 2.1171875 7.33984375 C1.71097168 6.36394287 1.30475586 5.38804199 0.88623047 4.38256836 C0 2 0 2 0 0 Z " fill="#A9151A" transform="translate(323,294)"/>
<path d="M0 0 C2.3431213 0.25561323 4.67843403 0.59270772 7 1 C7.33 1.66 7.66 2.32 8 3 C8.804375 3.268125 9.60875 3.53625 10.4375 3.8125 C13 5 13 5 14.3125 7.625 C14.6528125 8.800625 14.6528125 8.800625 15 10 C10.2484765 10 9.37296519 9.08065944 5.8125 6.125 C4.93207031 5.40570313 4.05164063 4.68640625 3.14453125 3.9453125 C1 2 1 2 0 0 Z " fill="#B70F13" transform="translate(255,260)"/>
<path d="M0 0 C1.1817019 3.5451057 0.7911988 4.14017506 -0.65234375 7.44921875 C-1.01650391 8.29677734 -1.38066406 9.14433594 -1.75585938 10.01757812 C-2.34077148 11.33918945 -2.34077148 11.33918945 -2.9375 12.6875 C-3.32357422 13.58017578 -3.70964844 14.47285156 -4.10742188 15.39257812 C-5.06311123 17.59892268 -6.02755469 19.80100147 -7 22 C-7.33 22 -7.66 22 -8 22 C-8.125 15.25 -8.125 15.25 -7 13 C-6.34 13 -5.68 13 -5 13 C-5 11.35 -5 9.7 -5 8 C-4.34 8 -3.68 8 -3 8 C-2.814375 6.8553125 -2.814375 6.8553125 -2.625 5.6875 C-2 3 -2 3 0 0 Z " fill="#AB1E1E" transform="translate(140,301)"/>
<path d="M0 0 C0 0.66 0 1.32 0 2 C-6.00670747 5.05052683 -12.03124182 8.06415177 -18.125 10.9375 C-19.01445313 11.35902344 -19.90390625 11.78054687 -20.8203125 12.21484375 C-21.89925781 12.60349609 -21.89925781 12.60349609 -23 13 C-23.66 12.67 -24.32 12.34 -25 12 C-4.52427184 0 -4.52427184 0 0 0 Z " fill="#AA1F1E" transform="translate(142,27)"/>
<path d="M0 0 C0.66 0.33 1.32 0.66 2 1 C0.50260417 2.23697917 -0.99479167 3.47395833 -2.4921875 4.7109375 C-3.71051161 5.75250992 -4.86660097 6.86660097 -6 8 C-9 9 -9 9 -13 9 C-13.70125 9.350625 -14.4025 9.70125 -15.125 10.0625 C-15.74375 10.371875 -16.3625 10.68125 -17 11 C-17.66 10.67 -18.32 10.34 -19 10 C-19 10.66 -19 11.32 -19 12 C-19.66 12 -20.32 12 -21 12 C-20.67 11.01 -20.34 10.02 -20 9 C-17.05078125 7.75390625 -17.05078125 7.75390625 -13.3125 6.5625 C-8.19255867 4.92433503 -4.31150621 3.11938468 0 0 Z " fill="#C60F0D" transform="translate(135,31)"/>
<path d="M0 0 C-0.60636233 5.76044212 -2.75658279 10.72014369 -5 16 C-6.94109043 12.80846929 -7.17612185 11.05736181 -6.3125 7.4375 C-6.14363281 6.67308594 -5.97476562 5.90867187 -5.80078125 5.12109375 C-4.66595367 2.11518461 -3.37950011 0 0 0 Z " fill="#BD1112" transform="translate(443,294)"/>
<path d="M0 0 C0.99 0 1.98 0 3 0 C0.60292686 8.17824952 -3.08858772 15.46651278 -7 23 C-8.09375 19.2421875 -8.09375 19.2421875 -7.25 17.0625 C-6.32401656 15.53462732 -5.38438138 14.01501021 -4.4375 12.5 C-3.14826053 10.2578444 -2.46652072 8.51921187 -2 6 C-1.34 6 -0.68 6 0 6 C0 4.02 0 2.04 0 0 Z " fill="#A41313" transform="translate(433,313)"/>
<path d="M0 0 C2.28717987 2.28717987 2.29522074 2.90638478 2.5625 6 C2.77684784 8.37969847 2.92338668 9.84677336 4 12 C3.83219837 14.69565202 3.38844355 17.32405554 3 20 C2.34 20 1.68 20 1 20 C-0.05619003 15.71702469 -0.11702092 11.57014354 -0.0625 7.1875 C-0.05798828 6.49462891 -0.05347656 5.80175781 -0.04882812 5.08789062 C-0.03713156 3.39188932 -0.01919924 1.69593297 0 0 Z " fill="#B71210" transform="translate(11,250)"/>
<path d="M0 0 C0.66 0.33 1.32 0.66 2 1 C1.52949219 1.53109375 1.05898438 2.0621875 0.57421875 2.609375 C-0.04839844 3.31578125 -0.67101562 4.0221875 -1.3125 4.75 C-1.92738281 5.44609375 -2.54226563 6.1421875 -3.17578125 6.859375 C-5.02916165 8.96978683 -5.02916165 8.96978683 -6.60546875 11.265625 C-7.06566406 11.83796875 -7.52585937 12.4103125 -8 13 C-8.66 13 -9.32 13 -10 13 C-10.33 13.66 -10.66 14.32 -11 15 C-10.56562648 10.07710011 -8.356381 7.51249175 -5 4 C-2.75 2.75 -2.75 2.75 -1 2 C-0.67 1.34 -0.34 0.68 0 0 Z " fill="#B01516" transform="translate(400,370)"/>
<path d="M0 0 C8.83828726 3.94678861 8.83828726 3.94678861 11 8 C11 8.66 11 9.32 11 10 C13.475 10.99 13.475 10.99 16 12 C16 12.99 16 13.98 16 15 C15.34 14.34 14.68 13.68 14 13 C13.34 12.87625 12.68 12.7525 12 12.625 C11.34 12.41875 10.68 12.2125 10 12 C9.3162955 10.67532254 8.65035814 9.34136367 8 8 C5.9664052 6.73195434 5.9664052 6.73195434 4 6 C4 5.34 4 4.68 4 4 C2.68 3.34 1.36 2.68 0 2 C0 1.34 0 0.68 0 0 Z " fill="#C31010" transform="translate(218,264)"/>
<path d="M0 0 C-3.08809695 1.76462683 -4.23312136 2 -8 2 C-8.33 2.66 -8.66 3.32 -9 4 C-10.2684375 3.9690625 -10.2684375 3.9690625 -11.5625 3.9375 C-15.11892777 4.00216232 -18.49093503 4.4385496 -22 5 C-15.03855863 0.35903908 -8.21195397 -1.85931033 0 0 Z " fill="#AE0F0F" transform="translate(174,18)"/>
<path d="M0 0 C0.33 0 0.66 0 1 0 C1.49535604 7.30650155 1.49535604 7.30650155 -0.875 10.625 C-1.57625 11.40875 -2.2775 12.1925 -3 13 C-4.25556887 16.17921787 -4.25556887 16.17921787 -5 19 C-5.66 19 -6.32 19 -7 19 C-5.17778624 12.38757278 -2.94776396 6.19479329 0 0 Z " fill="#A71518" transform="translate(228,157)"/>
<path d="M0 0 C3.7200193 3.7200193 4.34598503 8.24890271 5.125 13.3125 C5.29257813 14.38113281 5.46015625 15.44976562 5.6328125 16.55078125 C5.75398437 17.35902344 5.87515625 18.16726562 6 19 C2.68747224 17.34373612 2.11461315 14.054282 0.8203125 10.72265625 C-0.3136082 6.95911946 -0.28908416 3.90263615 0 0 Z " fill="#B6181D" transform="translate(249,181)"/>
<path d="M0 0 C0.66 0 1.32 0 2 0 C1.11211011 4.69313225 0.3918784 7.6081216 -3 11 C-3.33 11.99 -3.66 12.98 -4 14 C-4.66 14 -5.32 14 -6 14 C-5.58742287 8.49897163 -3.45277325 4.23798336 0 0 Z " fill="#B5191A" transform="translate(197,162)"/>
<path d="M0 0 C-1.32 0.33 -2.64 0.66 -4 1 C-4.12375 1.61875 -4.2475 2.2375 -4.375 2.875 C-5 5 -5 5 -7 7 C-9.68839385 7.26991906 -12.29141936 7.08737357 -15 7 C-14.34 6.34 -13.68 5.68 -13 5 C-12.01 5 -11.02 5 -10 5 C-10 4.01 -10 3.02 -10 2 C-8.71211992 1.46987262 -7.41953322 0.9511671 -6.125 0.4375 C-5.40570313 0.14746094 -4.68640625 -0.14257812 -3.9453125 -0.44140625 C-2 -1 -2 -1 0 0 Z " fill="#BE0B09" transform="translate(152,24)"/>
<path d="M0 0 C0 0.66 0 1.32 0 2 C-5.87883349 4.61281488 -11.70731728 4.18328202 -18 4 C-12.23174747 0.94923533 -6.54078263 -0.32703913 0 0 Z " fill="#A90D0C" transform="translate(188,13)"/>
<path d="M0 0 C0.99 0.33 1.98 0.66 3 1 C3.94921875 3.06640625 3.94921875 3.06640625 4.6875 5.5625 C5.06455078 6.80193359 5.06455078 6.80193359 5.44921875 8.06640625 C5.63097656 8.70449219 5.81273437 9.34257812 6 10 C5.34 9.67 4.68 9.34 4 9 C4 8.01 4 7.02 4 6 C1.69 6.66 -0.62 7.32 -3 8 C-1.125 1.125 -1.125 1.125 0 0 Z " fill="#AA2527" transform="translate(233,146)"/>
<path d="M0 0 C3 2 6 4 9 6 C9 7.32 9 8.64 9 10 C5.05860922 8.33248852 2.2107188 5.77289351 -1 3 C-0.67 2.01 -0.34 1.02 0 0 Z " fill="#BC0E11" transform="translate(250,288)"/>
<path d="M0 0 C1.32 0 2.64 0 4 0 C2.94891347 4.90507046 0.59907835 8.7469627 -2 13 C-3.30045636 10.39908727 -2.78732009 9.2944464 -2.125 6.5 C-1.94195312 5.7059375 -1.75890625 4.911875 -1.5703125 4.09375 C-1 2 -1 2 0 0 Z " fill="#BE1317" transform="translate(193,244)"/>
<path d="M0 0 C2.25 0.125 2.25 0.125 5 1 C5.95666871 2.3855202 6.90377929 3.78104592 7.75390625 5.234375 C10.21971379 8.7282465 13.71327039 11.30360532 17 14 C16.67 14.66 16.34 15.32 16 16 C10.42759458 11.2575273 4.95127303 6.39899453 0 1 C0 0.67 0 0.34 0 0 Z " fill="#9D1619" transform="translate(68,380)"/>
<path d="M0 0 C0.99 0.66 1.98 1.32 3 2 C3 3.32 3 4.64 3 6 C3.66 6 4.32 6 5 6 C5 6.66 5 7.32 5 8 C5.99 8.33 6.98 8.66 8 9 C7.67 10.32 7.34 11.64 7 13 C4.03 9.37 1.06 5.74 -2 2 C-1.34 1.34 -0.68 0.68 0 0 Z " fill="#B21217" transform="translate(60,367)"/>
<path d="M0 0 C5.07648175 2.78387709 9.4833069 6.40829416 14 10 C11 11 11 11 8.8125 10.0625 C8.214375 9.711875 7.61625 9.36125 7 9 C7 8.34 7 7.68 7 7 C6.21625 6.773125 5.4325 6.54625 4.625 6.3125 C2 5 2 5 0.6875 2.375 C0.460625 1.59125 0.23375 0.8075 0 0 Z " fill="#AD1316" transform="translate(287,318)"/>
<path d="M0 0 C0.33 0 0.66 0 1 0 C1.11521265 5.41499441 0.68201156 10.62915894 0 16 C-1.32 16.33 -2.64 16.66 -4 17 C-3.125 9.125 -3.125 9.125 -2 8 C-1.835 6.845 -1.67 5.69 -1.5 4.5 C-1 1 -1 1 0 0 Z " fill="#CB0F0F" transform="translate(444,278)"/>
<path d="M0 0 C2.25 0 2.25 0 5 1 C6.67198768 3.52667787 7.85805571 6.19936568 9 9 C5.07699728 7.17495091 2.26212728 4.81729174 -1 2 C-0.67 1.34 -0.34 0.68 0 0 Z " fill="#B81110" transform="translate(215,227)"/>
<path d="M0 0 C0.33 0 0.66 0 1 0 C1.34515632 3.71043048 1.37710875 5.46684625 -0.8125 8.5625 C-1.534375 9.366875 -2.25625 10.17125 -3 11 C-4.0268343 12.6502694 -5.03567924 14.31243867 -6 16 C-6.33 15.34 -6.66 14.68 -7 14 C-5.92481882 11.55667274 -4.80191434 9.23245477 -3.5625 6.875 C-3.22412109 6.21628906 -2.88574219 5.55757812 -2.53710938 4.87890625 C-1.69850074 3.24893453 -0.85015189 1.62398091 0 0 Z " fill="#B12524" transform="translate(34,126)"/>
<path d="M0 0 C1.39214652 4.17643955 -0.29335734 6.83437793 -1.9375 10.6875 C-2.22818359 11.38939453 -2.51886719 12.09128906 -2.81835938 12.81445312 C-3.53710313 14.54650775 -4.26745331 16.27373781 -5 18 C-5.33 18 -5.66 18 -6 18 C-5.67 14.37 -5.34 10.74 -5 7 C-4.01 7 -3.02 7 -2 7 C-2 5.35 -2 3.7 -2 2 C-1.34 2 -0.68 2 0 2 C0 1.34 0 0.68 0 0 Z " fill="#AE0F12" transform="translate(217,115)"/>
<path d="M0 0 C1.98 0.66 3.96 1.32 6 2 C6 2.66 6 3.32 6 4 C6.9075 4.0825 7.815 4.165 8.75 4.25 C12.40077839 5.09248732 13.63384583 6.17881618 16 9 C14.35 8.67 12.7 8.34 11 8 C11 7.34 11 6.68 11 6 C8.69 6.33 6.38 6.66 4 7 C3.896875 6.360625 3.79375 5.72125 3.6875 5.0625 C3.460625 4.381875 3.23375 3.70125 3 3 C2.01 2.67 1.02 2.34 0 2 C0 1.34 0 0.68 0 0 Z " fill="#BD0C0B" transform="translate(357,51)"/>
<path d="M0 0 C1.21811255 3.65433764 0.56632223 4.60630184 -1 8 C-1.33 8.66 -1.66 9.32 -2 10 C-2.99 10 -3.98 10 -5 10 C-5.66 11.65 -6.32 13.3 -7 15 C-7.33 14.34 -7.66 13.68 -8 13 C-6.75506252 10.71025684 -5.47358472 8.55809966 -4.0625 6.375 C-3.67642578 5.76398438 -3.29035156 5.15296875 -2.89257812 4.5234375 C-1.93553674 3.0110758 -0.96867189 1.50493883 0 0 Z " fill="#AC1614" transform="translate(43,111)"/>
<path d="M0 0 C9.59453303 6.15034169 9.59453303 6.15034169 13 10 C11.35 10.33 9.7 10.66 8 11 C8 10.34 8 9.68 8 9 C7.01 8.67 6.02 8.34 5 8 C4.67 7.01 4.34 6.02 4 5 C3.01 4.67 2.02 4.34 1 4 C0.3125 1.9375 0.3125 1.9375 0 0 Z " fill="#A50F10" transform="translate(301,329)"/>
<path d="M0 0 C0.33 0 0.66 0 1 0 C0.4140625 6.15234375 0.4140625 6.15234375 0 8 C-0.99 8.495 -0.99 8.495 -2 9 C-2.144375 10.134375 -2.28875 11.26875 -2.4375 12.4375 C-2.623125 13.613125 -2.80875 14.78875 -3 16 C-3.99 16.66 -4.98 17.32 -6 18 C-5.88541307 16.56163249 -5.75790884 15.12429034 -5.625 13.6875 C-5.55539063 12.88699219 -5.48578125 12.08648437 -5.4140625 11.26171875 C-5 9 -5 9 -3 6 C-2.34 6 -1.68 6 -1 6 C-1.020625 5.195625 -1.04125 4.39125 -1.0625 3.5625 C-1 1 -1 1 0 0 Z " fill="#CA1410" transform="translate(182,194)"/>
<path d="M0 0 C4.14452147 0.46377416 7.21196714 2.02364404 10.8125 4.0625 C11.78832031 4.61035156 12.76414062 5.15820312 13.76953125 5.72265625 C14.50558594 6.14417969 15.24164063 6.56570312 16 7 C14 8 14 8 11.3984375 7.22265625 C9.90183594 6.64837891 9.90183594 6.64837891 8.375 6.0625 C7.37210937 5.68222656 6.36921875 5.30195312 5.3359375 4.91015625 C4.56507813 4.60980469 3.79421875 4.30945312 3 4 C3 3.34 3 2.68 3 2 C1.68 1.67 0.36 1.34 -1 1 C-0.67 0.67 -0.34 0.34 0 0 Z " fill="#A81214" transform="translate(323,29)"/>
<path d="M0 0 C-3.79817765 3.22269618 -7.57391854 5.74520378 -12 8 C-12.66 7.67 -13.32 7.34 -14 7 C-13.01 6.67 -12.02 6.34 -11 6 C-11 5.34 -11 4.68 -11 4 C-10.34 4 -9.68 4 -9 4 C-9 3.34 -9 2.68 -9 2 C-5.86501708 0.14223235 -3.62528568 -0.20140476 0 0 Z " fill="#A81719" transform="translate(352,415)"/>
<path d="M0 0 C0.33 0.66 0.66 1.32 1 2 C-0.07335699 4.76674582 -1.20260061 7.43194258 -2.4375 10.125 C-2.77587891 10.87910156 -3.11425781 11.63320312 -3.46289062 12.41015625 C-4.30160601 14.27659331 -5.14991393 16.1387143 -6 18 C-7.23176506 14.30470481 -6.58605288 13.42063941 -5.0625 9.9375 C-3.50040923 6.58075678 -3.50040923 6.58075678 -3 3 C-2.34 3 -1.68 3 -1 3 C-0.67 2.01 -0.34 1.02 0 0 Z " fill="#AC1519" transform="translate(166,239)"/>
<path d="M0 0 C1 2 1 2 -0.125 5.4375 C-1.68880731 8.92879075 -3.479691 10.38256073 -7 12 C-5.44298069 7.32894208 -2.91552627 3.91294315 0 0 Z " fill="#B41015" transform="translate(51,99)"/>
<path d="M0 0 C0.33 0 0.66 0 1 0 C0.85904936 1.6254308 0.71207913 3.25034051 0.5625 4.875 C0.48128906 5.77992188 0.40007812 6.68484375 0.31640625 7.6171875 C0 10 0 10 -1 12 C-1.66 12 -2.32 12 -3 12 C-3.33 12.99 -3.66 13.98 -4 15 C-5 13 -5 13 -4.00390625 9.9609375 C-3.52824219 8.77757812 -3.05257812 7.59421875 -2.5625 6.375 C-2.08941406 5.18648438 -1.61632812 3.99796875 -1.12890625 2.7734375 C-0.75636719 1.85820312 -0.38382813 0.94296875 0 0 Z " fill="#A21913" transform="translate(177,283)"/>
<path d="M0 0 C0.95721871 3.03458696 1.00893515 4.99541482 0.1875 8.0625 C0.01605469 8.73410156 -0.15539062 9.40570313 -0.33203125 10.09765625 C-1 12 -1 12 -3 15 C-3.66 13.02 -4.32 11.04 -5 9 C-4.34 8.67 -3.68 8.34 -3 8 C-2.09656316 6.11736119 -2.09656316 6.11736119 -1.375 3.9375 C-1.11460937 3.20402344 -0.85421875 2.47054687 -0.5859375 1.71484375 C-0.39257812 1.14894531 -0.19921875 0.58304688 0 0 Z " fill="#BB1315" transform="translate(170,224)"/>
<path d="M0 0 C2.24956302 2.24956302 3.00510965 4.06323263 4.1875 7 C4.55230469 7.886875 4.91710937 8.77375 5.29296875 9.6875 C6 12 6 12 5 14 C2.37200898 12.13497412 1.13634249 10.69589209 0.51171875 7.5078125 C0.27406427 5.0035728 0.0959336 2.51346021 0 0 Z " fill="#AA1619" transform="translate(243,167)"/>
<path d="M0 0 C4.29 0 8.58 0 13 0 C13 1.32 13 2.64 13 4 C12.01 4.33 11.02 4.66 10 5 C10 4.34 10 3.68 10 3 C6.7 2.67 3.4 2.34 0 2 C0 1.34 0 0.68 0 0 Z " fill="#AF1010" transform="translate(314,339)"/>
<path d="M0 0 C1.37095624 3.69037278 0.60010967 5.70883835 -0.9375 9.25 C-1.31777344 10.14203125 -1.69804687 11.0340625 -2.08984375 11.953125 C-2.39019531 12.62859375 -2.69054687 13.3040625 -3 14 C-3.66 14 -4.32 14 -5 14 C-5.33 13.01 -5.66 12.02 -6 11 C-5.01 10.67 -4.02 10.34 -3 10 C-3.061875 9.0925 -3.12375 8.185 -3.1875 7.25 C-2.98327924 3.71017358 -2.35448165 2.55068845 0 0 Z " fill="#CD1114" transform="translate(190,176)"/>
<path d="M0 0 C3.16115776 1.36983503 3.9927092 1.9890638 6 5 C5.625 8.1875 5.625 8.1875 5 11 C2.03947516 7.63576723 1.07710178 4.30840713 0 0 Z " fill="#B51117" transform="translate(264,152)"/>
<path d="M0 0 C0.99 0 1.98 0 3 0 C1.44499019 3.81684226 -1.03595495 6.19195732 -4 9 C-4.99 8.67 -5.98 8.34 -7 8 C-6.01 7.67 -5.02 7.34 -4 7 C-4 6.34 -4 5.68 -4 5 C-3.34 5 -2.68 5 -2 5 C-1.855625 4.360625 -1.71125 3.72125 -1.5625 3.0625 C-1 1 -1 1 0 0 Z " fill="#A91213" transform="translate(381,388)"/>
<path d="M0 0 C0.66 0 1.32 0 2 0 C1.74438677 2.3431213 1.40729228 4.67843403 1 7 C0.01 7.495 0.01 7.495 -1 8 C-1.33 8.99 -1.66 9.98 -2 11 C-2.66 10.67 -3.32 10.34 -4 10 C-3.34 7.36 -2.68 4.72 -2 2 C-1.34 2 -0.68 2 0 2 C0 1.34 0 0.68 0 0 Z " fill="#C00D0D" transform="translate(157,256)"/>
<path d="M0 0 C1.29696563 4.33947146 0.79928632 7.56759403 0 12 C-0.99 12.495 -0.99 12.495 -2 13 C-2.66 13.99 -3.32 14.98 -4 16 C-3.39891424 10.34979382 -1.92471317 5.33835539 0 0 Z " fill="#A81D1F" transform="translate(21,155)"/>
<path d="M0 0 C3.01327566 1.50663783 3.61056618 4.03166411 5 7 C4.01 7.33 3.02 7.66 2 8 C1.34 6.35 0.68 4.7 0 3 C-0.99 3.99 -1.98 4.98 -3 6 C-3 4.68 -3 3.36 -3 2 C-2.01 1.34 -1.02 0.68 0 0 Z " fill="#C50C08" transform="translate(233,152)"/>
<path d="M0 0 C9.59453303 6.15034169 9.59453303 6.15034169 13 10 C10.5625 9.625 10.5625 9.625 8 9 C7.67 8.34 7.34 7.68 7 7 C6.195625 6.731875 5.39125 6.46375 4.5625 6.1875 C2 5 2 5 0.83984375 2.42578125 C0.56269531 1.62527344 0.28554688 0.82476562 0 0 Z " fill="#9E1518" transform="translate(355,46)"/>
<path d="M0 0 C0.99 0.33 1.98 0.66 3 1 C2.34 1 1.68 1 1 1 C1 1.66 1 2.32 1 3 C0 4.5625 0 4.5625 -2 6 C-4.6787619 6.56005673 -7.26160661 6.77554153 -10 7 C-7.83133199 4.83133199 -5.64004931 3.54539472 -3 2 C-2.01 1.34 -1.02 0.68 0 0 Z " fill="#C81311" transform="translate(340,418)"/>
<path d="M0 0 C0.33 0 0.66 0 1 0 C1.17835515 4.54805635 0.99785435 7.8794254 -1 12 C-1.99 11.67 -2.98 11.34 -4 11 C-2.68 7.37 -1.36 3.74 0 0 Z " fill="#AE0E10" transform="translate(160,326)"/>
<path d="M0 0 C1.60031344 3.20062687 0.03173691 5.72271806 -1 9 C-1.66 9 -2.32 9 -3 9 C-3.66 10.32 -4.32 11.64 -5 13 C-5.6875 10.6875 -5.6875 10.6875 -6 8 C-4.75 6.5 -4.75 6.5 -3 5 C-1.96642853 3.35394174 -0.95939668 1.69036558 0 0 Z " fill="#CB1411" transform="translate(32,134)"/>
<path d="M0 0 C3.75376152 1.25125384 4.24073289 2.5652404 6 6 C6 6.66 6 7.32 6 8 C5.34 8 4.68 8 4 8 C4 7.34 4 6.68 4 6 C2.35 5.67 0.7 5.34 -1 5 C-0.67 3.35 -0.34 1.7 0 0 Z " fill="#B40A0B" transform="translate(417,112)"/>
<path d="M0 0 C3.86648272 1.04097612 7.49461443 2.03698408 11 4 C11 4.66 11 5.32 11 6 C9.56068883 5.54738642 8.12361001 5.08767021 6.6875 4.625 C5.88699219 4.36976563 5.08648437 4.11453125 4.26171875 3.8515625 C2 3 2 3 -1 1 C-0.67 0.67 -0.34 0.34 0 0 Z " fill="#A71414" transform="translate(133,427)"/>
<path d="M0 0 C8.44646925 6.15034169 8.44646925 6.15034169 12 10 C8 10 8 10 6 8.25 C5.34 7.5075 4.68 6.765 4 6 C3.2575 5.29875 2.515 4.5975 1.75 3.875 C0 2 0 2 0 0 Z " fill="#981318" transform="translate(227,269)"/>
<path d="M0 0 C1.231394 2.46278801 1.07159196 4.2795055 1 7 C1.66 7.33 2.32 7.66 3 8 C2.67 8.99 2.34 9.98 2 11 C-0.475 10.01 -0.475 10.01 -3 9 C-2.69181644 7.68647977 -2.37832335 6.37420428 -2.0625 5.0625 C-1.88847656 4.33160156 -1.71445313 3.60070312 -1.53515625 2.84765625 C-1 1 -1 1 0 0 Z " fill="#CD0C0E" transform="translate(124,332)"/>
<path d="M0 0 C1.79378179 2.69067269 2.97313958 5.08578257 4.1875 8.0625 C4.55230469 8.94035156 4.91710937 9.81820312 5.29296875 10.72265625 C6 13 6 13 5 15 C1.10640794 10.10160999 0.2757735 6.2049038 0 0 Z " fill="#971411" transform="translate(271,235)"/>
<path d="M0 0 C0.99 0 1.98 0 3 0 C3.53341184 1.57914015 4.05125763 3.16354387 4.5625 4.75 C4.85253906 5.63171875 5.14257812 6.5134375 5.44140625 7.421875 C6.01697435 10.07834316 5.89248371 11.47031106 5 14 C4.16235732 12.04350603 3.33000941 10.08474444 2.5 8.125 C2.0359375 7.03445312 1.571875 5.94390625 1.09375 4.8203125 C0 2 0 2 0 0 Z " fill="#A61617" transform="translate(269,164)"/>
<path d="M0 0 C0.33 0.66 0.66 1.32 1 2 C-3.625 6.875 -3.625 6.875 -7 8 C-5.355132 4.33067907 -3.64667862 1.82333931 0 0 Z " fill="#B50C0C" transform="translate(59,91)"/>
<path d="M0 0 C2.34914492 2.34914492 2.73140357 3.95679446 3.625 7.125 C3.88539063 8.03507812 4.14578125 8.94515625 4.4140625 9.8828125 C4.70410156 10.93082031 4.70410156 10.93082031 5 12 C3.046875 11.3203125 3.046875 11.3203125 1 10 C0.390625 7.6171875 0.390625 7.6171875 0.25 4.875 C0.19328125 3.96492188 0.1365625 3.05484375 0.078125 2.1171875 C0.05234375 1.41851562 0.0265625 0.71984375 0 0 Z " fill="#A4191E" transform="translate(283,265)"/>
<path d="M0 0 C3.42931954 3.7559214 4.56429083 8.23466745 6 13 C2.42016341 9.65881918 0.10283266 7.26231859 -0.125 2.25 C-0.063125 1.13625 -0.063125 1.13625 0 0 Z " fill="#A21216" transform="translate(429,131)"/>
<path d="M0 0 C3.33333333 1.66666667 6.66666667 3.33333333 10 5 C10 5.99 10 6.98 10 8 C6.05205855 6.32971708 3.18203882 3.8204435 0 1 C0 0.67 0 0.34 0 0 Z " fill="#9C1219" transform="translate(85,396)"/>
<path d="M0 0 C0.99 0.33 1.98 0.66 3 1 C2.67 1.99 2.34 2.98 2 4 C-1.5625 5.1875 -1.5625 5.1875 -5 6 C-4.67 4.68 -4.34 3.36 -4 2 C-3.01 2.33 -2.02 2.66 -1 3 C-0.67 2.01 -0.34 1.02 0 0 Z " fill="#CC0F10" transform="translate(332,336)"/>
<path d="M0 0 C3 3.625 3 3.625 3 7 C0.625 6.6875 0.625 6.6875 -2 6 C-2.66 5.01 -3.32 4.02 -4 3 C-2.68 3.33 -1.36 3.66 0 4 C0 2.68 0 1.36 0 0 Z " fill="#9F2424" transform="translate(289,281)"/>
<path d="M0 0 C3.09592835 3.5087188 4.74194623 6.49197399 6 11 C5.34 11 4.68 11 4 11 C3.34 9.02 2.68 7.04 2 5 C1.34 5 0.68 5 0 5 C0 3.35 0 1.7 0 0 Z " fill="#A91218" transform="translate(423,120)"/>
<path d="M0 0 C4.0369867 1.79421631 6.64480474 3.20551875 9 7 C8.67 7.66 8.34 8.32 8 9 C6.2925002 7.71937515 4.62626404 6.38232443 3 5 C3 4.34 3 3.68 3 3 C2.01 2.67 1.02 2.34 0 2 C0 1.34 0 0.68 0 0 Z " fill="#B31114" transform="translate(348,42)"/>
<path d="M0 0 C0.33 1.32 0.66 2.64 1 4 C-1.475 5.485 -1.475 5.485 -4 7 C-4.66 6.34 -5.32 5.68 -6 5 C-4.02 3.35 -2.04 1.7 0 0 Z " fill="#C51011" transform="translate(388,382)"/>
<path d="M0 0 C0.66 0 1.32 0 2 0 C6 6.75 6 6.75 6 9 C3 8 3 8 1.3125 5.0625 C0 2 0 2 0 0 Z " fill="#CA1114" transform="translate(33,327)"/>
<path d="M0 0 C0.66 0 1.32 0 2 0 C2.99 3.3 3.98 6.6 5 10 C2 9 2 9 0.8125 6.6875 C0 4 0 4 0 0 Z " fill="#A3181F" transform="translate(263,218)"/>
<path d="M0 0 C2.03819846 2.03819846 2.67841059 3.29417798 3.6875 5.9375 C3.95949219 6.62714844 4.23148437 7.31679687 4.51171875 8.02734375 C5 10 5 10 4 13 C3.34 12.67 2.68 12.34 2 12 C0.96197813 8.07858405 0.5510927 4.01510396 0 0 Z " fill="#C80E0D" transform="translate(255,200)"/>
<path d="M0 0 C0.33 0 0.66 0 1 0 C0.88648483 1.81325551 0.75887039 3.62563357 0.625 5.4375 C0.55539063 6.44683594 0.48578125 7.45617187 0.4140625 8.49609375 C0.27742187 9.32238281 0.14078125 10.14867187 0 11 C-0.99 11.495 -0.99 11.495 -2 12 C-2.05422947 10.5629191 -2.09289723 9.12524538 -2.125 7.6875 C-2.14820313 6.88699219 -2.17140625 6.08648437 -2.1953125 5.26171875 C-2 3 -2 3 0 0 Z " fill="#C80D09" transform="translate(211,122)"/>
<path d="M0 0 C0.66 0 1.32 0 2 0 C1.44894091 3.9492568 0.61064629 7.34920174 -1 11 C-1.33 11 -1.66 11 -2 11 C-2 8.69 -2 6.38 -2 4 C-1.34 4 -0.68 4 0 4 C0 2.68 0 1.36 0 0 Z " fill="#A11519" transform="translate(441,294)"/>
<path d="M0 0 C0 0.66 0 1.32 0 2 C-1.65 2 -3.3 2 -5 2 C-5 2.66 -5 3.32 -5 4 C-5.99 4.33 -6.98 4.66 -8 5 C-8 3.68 -8 2.36 -8 1 C-5.10765685 0.17361624 -3.11257569 0 0 0 Z " fill="#C30A07" transform="translate(314,339)"/>
<path d="M0 0 C4.92307692 4.18461538 4.92307692 4.18461538 5.3125 8.3125 C5.209375 9.199375 5.10625 10.08625 5 11 C4.731875 10.38125 4.46375 9.7625 4.1875 9.125 C3.04443152 6.7004767 3.04443152 6.7004767 0 5 C-0.1875 2.375 -0.1875 2.375 0 0 Z " fill="#C30F13" transform="translate(322,288)"/>
<path d="M0 0 C2.31 0.66 4.62 1.32 7 2 C7.33 3.65 7.66 5.3 8 7 C6.66382648 6.02471263 5.3311249 5.04466681 4 4.0625 C3.2575 3.51722656 2.515 2.97195313 1.75 2.41015625 C1.1725 1.94480469 0.595 1.47945313 0 1 C0 0.67 0 0.34 0 0 Z " fill="#A91116" transform="translate(270,272)"/>
<path d="M0 0 C3.44216672 2.6598561 3.99504674 5.90288286 5 10 C4.34 10 3.68 10 3 10 C3 8.68 3 7.36 3 6 C2.34 6 1.68 6 1 6 C0.67 4.02 0.34 2.04 0 0 Z " fill="#CB1111" transform="translate(308,253)"/>
<path d="M0 0 C0.66 0 1.32 0 2 0 C3.625 3.3125 3.625 3.3125 5 7 C4.01 8.485 4.01 8.485 3 10 C0 3.375 0 3.375 0 0 Z " fill="#AD1A19" transform="translate(285,202)"/>
<path d="M0 0 C2.3129482 2.3129482 2.49580975 3.47904875 3.125 6.625 C3.29257812 7.44226563 3.46015625 8.25953125 3.6328125 9.1015625 C3.81457031 10.04128906 3.81457031 10.04128906 4 11 C3.01 10.67 2.02 10.34 1 10 C0.234375 7.96875 0.234375 7.96875 -0.25 5.5 C-0.42015625 4.6853125 -0.5903125 3.870625 -0.765625 3.03125 C-0.84296875 2.3609375 -0.9203125 1.690625 -1 1 C-0.67 0.67 -0.34 0.34 0 0 Z " fill="#C91016" transform="translate(443,172)"/>
<path d="M0 0 C0.33 0 0.66 0 1 0 C0.54177532 3.46941546 0.10868317 6.67395049 -1 10 C-1.66 10 -2.32 10 -3 10 C-2.49287967 6.28111761 -1.88391785 3.26545761 0 0 Z " fill="#CF1614" transform="translate(194,166)"/>
<path d="M0 0 C0.66 0.33 1.32 0.66 2 1 C0.74464015 4.76607955 -0.52883585 5.26441793 -4 7 C-4.99 7 -5.98 7 -7 7 C-4.69 4.69 -2.38 2.38 0 0 Z " fill="#9F1318" transform="translate(88,59)"/>
<path d="M0 0 C-3.18762365 2.12508244 -5.26512223 2.5020163 -9 3 C-8.67 2.01 -8.34 1.02 -8 0 C-4.71023192 -1.09658936 -3.28696233 -0.79953138 0 0 Z " fill="#CD0D0B" transform="translate(311,434)"/>
<path d="M0 0 C2.475 0.495 2.475 0.495 5 1 C5 3.31 5 5.62 5 8 C2.74754119 5.31158141 1.11786042 3.35358125 0 0 Z " fill="#A11118" transform="translate(43,347)"/>
<path d="M0 0 C1.32 0.33 2.64 0.66 4 1 C1.03 3.475 1.03 3.475 -2 6 C-2.99 5.34 -3.98 4.68 -5 4 C-4.0409375 3.8453125 -4.0409375 3.8453125 -3.0625 3.6875 C-2.381875 3.460625 -1.70125 3.23375 -1 3 C-0.67 2.01 -0.34 1.02 0 0 Z " fill="#A80F12" transform="translate(371,397)"/>
<path d="M0 0 C0.66 0.33 1.32 0.66 2 1 C0.02 3.31 -1.96 5.62 -4 8 C-4.33 6.68 -4.66 5.36 -5 4 C-4.360625 3.71125 -3.72125 3.4225 -3.0625 3.125 C-0.84793921 2.17176549 -0.84793921 2.17176549 0 0 Z " fill="#9D1A1C" transform="translate(400,370)"/>
<path d="M0 0 C0.33 0.66 0.66 1.32 1 2 C0.67 2.99 0.34 3.98 0 5 C0.66 5.33 1.32 5.66 2 6 C-0.475 7.485 -0.475 7.485 -3 9 C-3 7.68 -3 6.36 -3 5 C-2.34 5 -1.68 5 -1 5 C-0.67 3.35 -0.34 1.7 0 0 Z " fill="#C70B0E" transform="translate(164,321)"/>
<path d="M0 0 C0.33 0 0.66 0 1 0 C1 2.31 1 4.62 1 7 C0.01 7.33 -0.98 7.66 -2 8 C-1.125 2.25 -1.125 2.25 0 0 Z " fill="#C51516" transform="translate(131,318)"/>
<path d="M0 0 C0.99 0.33 1.98 0.66 3 1 C2.67 2.98 2.34 4.96 2 7 C1.34 7 0.68 7 0 7 C-0.38133299 5.0085944 -0.71325582 3.00720923 -1 1 C-0.67 0.67 -0.34 0.34 0 0 Z " fill="#C80C0C" transform="translate(435,306)"/>
<path d="M0 0 C1.65 0 3.3 0 5 0 C5.33 1.32 5.66 2.64 6 4 C4.35 3.67 2.7 3.34 1 3 C0.67 2.01 0.34 1.02 0 0 Z " fill="#BC1011" transform="translate(235,279)"/>
<path d="M0 0 C3.36591866 1.44253657 5.51047079 3.33264727 8 6 C5.07120629 5.37240135 2.63904371 4.41377341 0 3 C0 2.01 0 1.02 0 0 Z " fill="#951117" transform="translate(216,261)"/>
<path d="M0 0 C2.64 1.98 5.28 3.96 8 6 C4.38462395 6 2.88834003 5.10770759 0 3 C0 2.01 0 1.02 0 0 Z " fill="#B91616" transform="translate(395,83)"/>
<path d="M0 0 C2.5 1.8125 2.5 1.8125 5 4 C5 4.99 5 5.98 5 7 C3 7 3 7 1.375 5.75 C0 4 0 4 0 0 Z " fill="#B41213" transform="translate(384,70)"/>
<path d="M0 0 C0.33 0.99 0.66 1.98 1 3 C-2 5 -2 5 -4.1875 4.625 C-4.785625 4.41875 -5.38375 4.2125 -6 4 C-4.02 2.68 -2.04 1.36 0 0 Z " fill="#B0171B" transform="translate(112,42)"/>
<path d="M0 0 C2.97 0.99 5.94 1.98 9 3 C8.01 3.66 7.02 4.32 6 5 C5.38125 4.67 4.7625 4.34 4.125 4 C2.08981656 2.85806765 2.08981656 2.85806765 0 3 C0 2.01 0 1.02 0 0 Z " fill="#CD0B0F" transform="translate(328,33)"/>
</svg>
