<svg xmlns="http://www.w3.org/2000/svg" version="1.1" viewBox="305.6772247360483 159.11999999999998 419.526395173454 468" style="max-height: 500px" width="419.526395173454" height="468">
<path transform="translate(554,175)" fill="#6D409D" d="M0 0 C1.7638474 1.02425681 3.52820574 2.04763406 5.29296875 3.0703125 C9.34076666 5.42194898 13.38087197 7.78629693 17.41796875 10.15625 C24.24849222 14.15741065 31.12118218 18.0828085 38 22 C47.67518787 27.51197126 57.31283034 33.08425092 66.921875 38.7109375 C74.58574164 43.19166376 82.28692274 47.60482689 90 52 C100.89120778 58.20738155 111.74808715 64.47035068 122.5546875 70.82421875 C125.97378448 72.8311843 129.41035814 74.79397272 132.8828125 76.70703125 C148.38621103 85.32095786 160.07738134 96.38901573 165.4921875 113.8671875 C166.75232003 119.15974414 167.14717617 124.27680137 167.14044189 129.70205688 C167.14489858 130.83635763 167.14489858 130.83635763 167.1494453 131.99357355 C167.15808905 134.51737419 167.15963688 137.04112716 167.16113281 139.56494141 C167.1657641 141.37884624 167.17078918 143.1927501 167.17617798 145.00665283 C167.18927531 149.92843354 167.19574191 154.85020062 167.20018864 159.77199602 C167.2031241 162.85061735 167.20722983 165.92923499 167.21169281 169.00785446 C167.22536167 178.65074223 167.23503092 188.29362153 167.2388947 197.93651831 C167.24337194 209.04783133 167.26090694 220.15902113 167.2898953 231.27029669 C167.31155269 239.87181047 167.32160117 248.47328968 167.32293582 257.07483041 C167.32398108 262.20599828 167.32982918 267.33705021 167.34775543 272.46818924 C167.36430604 277.29945399 167.36635786 282.13051652 167.35761642 286.96179962 C167.35684974 288.72735768 167.36113971 290.49292692 167.37107468 292.25845718 C167.46800931 310.56992388 164.3549297 325.80742341 151.44140625 339.6484375 C145.27738206 345.5856256 139.08949519 349.89506574 131.5625 354 C129.49655309 355.14692078 127.43147532 356.29540828 125.3671875 357.4453125 C124.31112305 358.0321582 123.25505859 358.61900391 122.16699219 359.22363281 C117.13713716 362.04488051 112.1619126 364.95743058 107.1875 367.875 C95.58110527 374.66974832 83.93606331 381.39590294 72.28222656 388.10888672 C66.85340058 391.23680148 61.42680719 394.36858448 56 397.5 C53.83334417 398.75001879 51.6666775 400.00001878 49.5 401.25 C48.4275 401.86875 47.355 402.4875 46.25 403.125 C43 405 39.75 406.875 36.5 408.75 C35.42637207 409.36955566 34.35274414 409.98911133 33.24658203 410.62744141 C31.09185082 411.87024396 28.93658185 413.11211465 26.78076172 414.35302734 C21.76601765 417.24104024 16.75665599 420.1371584 11.76715088 423.06854248 C10.01800883 424.09557558 8.26709413 425.11951942 6.515625 426.14257812 C4.33238313 427.41907035 2.15241646 428.70118938 -0.0234375 429.99023438 C-17.1434126 439.97320955 -33.23643229 445.05046507 -52.88330078 439.96386719 C-60.51973704 437.76661616 -67.19585923 434.01120725 -74 430 C-75.7638474 428.97574319 -77.52820574 427.95236594 -79.29296875 426.9296875 C-83.34076666 424.57805102 -87.38087197 422.21370307 -91.41796875 419.84375 C-98.24849222 415.84258935 -105.12118218 411.9171915 -112 408 C-121.67518787 402.48802874 -131.31283034 396.91574908 -140.921875 391.2890625 C-148.58574164 386.80833624 -156.28692274 382.39517311 -164 378 C-174.89120778 371.79261845 -185.74808715 365.52964932 -196.5546875 359.17578125 C-199.97378448 357.1688157 -203.41035814 355.20602728 -206.8828125 353.29296875 C-222.38621103 344.67904214 -234.07738134 333.61098427 -239.4921875 316.1328125 C-240.75232003 310.84025586 -241.14717617 305.72319863 -241.14044189 300.29794312 C-241.14341302 299.54174262 -241.14638414 298.78554212 -241.1494453 298.00642645 C-241.15808905 295.48262581 -241.15963688 292.95887284 -241.16113281 290.43505859 C-241.1657641 288.62115376 -241.17078918 286.8072499 -241.17617798 284.99334717 C-241.18927531 280.07156646 -241.19574191 275.14979938 -241.20018864 270.22800398 C-241.2031241 267.14938265 -241.20722983 264.07076501 -241.21169281 260.99214554 C-241.22536167 251.34925777 -241.23503092 241.70637847 -241.2388947 232.06348169 C-241.24337194 220.95216867 -241.26090694 209.84097887 -241.2898953 198.72970331 C-241.31155269 190.12818953 -241.32160117 181.52671032 -241.32293582 172.92516959 C-241.32398108 167.79400172 -241.32982918 162.66294979 -241.34775543 157.53181076 C-241.36430604 152.70054601 -241.36635786 147.86948348 -241.35761642 143.03820038 C-241.35684974 141.27264232 -241.36113971 139.50707308 -241.37107468 137.74154282 C-241.46800931 119.43007612 -238.3549297 104.19257659 -225.44140625 90.3515625 C-219.27738206 84.4143744 -213.08949519 80.10493426 -205.5625 76 C-203.49655309 74.85307922 -201.43147532 73.70459172 -199.3671875 72.5546875 C-198.31112305 71.9678418 -197.25505859 71.38099609 -196.16699219 70.77636719 C-191.13713716 67.95511949 -186.1619126 65.04256942 -181.1875 62.125 C-169.58110527 55.33025168 -157.93606331 48.60409706 -146.28222656 41.89111328 C-140.85340058 38.76319852 -135.42680719 35.63141552 -130 32.5 C-127.83334417 31.24998121 -125.6666775 29.99998122 -123.5 28.75 C-122.4275 28.13125 -121.355 27.5125 -120.25 26.875 C-117 25 -113.75 23.125 -110.5 21.25 C-109.42637207 20.63044434 -108.35274414 20.01088867 -107.24658203 19.37255859 C-105.09185082 18.12975604 -102.93658185 16.88788535 -100.78076172 15.64697266 C-95.76601765 12.75895976 -90.75665599 9.8628416 -85.76715088 6.93145752 C-84.01800883 5.90442442 -82.26709413 4.88048058 -80.515625 3.85742188 C-78.33238313 2.58092965 -76.15241646 1.29881062 -73.9765625 0.00976562 C-48.12667689 -15.06378236 -25.66870734 -15.13233021 0 0 Z"/>
<path transform="translate(423,316)" fill="#FBFAFC" d="M0 0 C14 0 14 0 17.65625 3.43359375 C18.65392758 5.07228384 19.59862503 6.74392717 20.5 8.4375 C21.64563849 10.35922165 22.79570063 12.27831026 23.94921875 14.1953125 C24.88967041 15.8045459 24.88967041 15.8045459 25.84912109 17.44628906 C28.23687355 21.45769056 30.83757147 25.31700158 33.45703125 29.1796875 C33.93796234 29.88998611 34.41889343 30.60028473 34.91439819 31.33210754 C36.37925338 33.49304066 37.84580288 35.65281677 39.3125 37.8125 C46.81148946 48.85779438 54.02004338 60.04008677 60 72 C60 48.24 60 24.48 60 0 C63.96 0 67.92 0 72 0 C72 29.7 72 59.4 72 90 C67.71 90 63.42 90 59 90 C56.07943434 86.88434744 54.20824567 84.53556053 52.14929199 80.94104004 C50.35135743 77.90450711 48.35023738 75.00982829 46.37335205 72.08782959 C44.02395613 68.60605923 41.71832747 65.09609526 39.41015625 61.58691406 C37.64038669 58.89837464 35.86342299 56.2146924 34.0859375 53.53125 C18.33328788 29.66657576 18.33328788 29.66657576 12 17 C11.67 41.09 11.34 65.18 11 90 C7.37 90 3.74 90 0 90 C0 60.3 0 30.6 0 0 Z"/>
<path transform="translate(516,316)" fill="#F9F7FB" d="M0 0 C16.17 0 32.34 0 49 0 C49 3.3 49 6.6 49 10 C37.12 10 25.24 10 13 10 C13 19.24 13 28.48 13 38 C23.89 38 34.78 38 46 38 C46 41.3 46 44.6 46 48 C35.11 48 24.22 48 13 48 C13 58.56 13 69.12 13 80 C25.54 80 38.08 80 51 80 C51 83.3 51 86.6 51 90 C34.17 90 17.34 90 0 90 C0 60.3 0 30.6 0 0 Z"/>
<path transform="translate(575,316)" fill="#FEFDFE" d="M0 0 C20.46 0 40.92 0 62 0 C62 3.3 62 6.6 62 10 C53.75 10 45.5 10 37 10 C37 36.4 37 62.8 37 90 C33.04 90 29.08 90 25 90 C25 63.6 25 37.2 25 10 C16.75 10 8.5 10 0 10 C0 6.7 0 3.4 0 0 Z"/>
<path transform="translate(511,439)" fill="#F6F4F9" d="M0 0 C4.45060226 2.02300103 7.06720891 4.61587718 9.3046875 9.015625 C11.15515603 14.29673743 10.61491375 19.24916555 8.375 24.3125 C6.17575685 28.12502879 4.11763326 30.20321458 0 32 C-5.3751792 32.85255863 -10.30648676 32.94692887 -15 29.9375 C-19.46438557 26.12617802 -20.79948915 21.80459767 -21.4375 16.0625 C-21.1699481 10.071664 -18.67007194 5.62933848 -14.4375 1.5 C-9.54995213 -0.63274816 -5.25172182 -0.75919078 0 0 Z"/>
<path transform="translate(565,439)" fill="#FBF9FC" d="M0 0 C3.20384041 1.29516953 4.5905657 2.51997358 6.8125 5.125 C8 8 8 8 8 17 C0.74 17 -6.52 17 -14 17 C-11.7539297 23.58640902 -11.7539297 23.58640902 -7 27 C-2.50007145 27.44002991 1.64381961 27.22765084 6 26 C5.67 27.65 5.34 29.3 5 31 C-0.43617053 32.81205684 -5.98215186 32.7099836 -11.375 30.8125 C-14.83736126 28.42182199 -17.12028805 25.7594239 -19 22 C-19.59611364 15.72934305 -19.25658131 10.53618823 -16 5 C-11.2630089 -0.43020931 -7.05034818 -1.07287907 0 0 Z"/>
<path transform="translate(476.5625,426.875)" fill="#F7F5FA" d="M0 0 C0.79341797 -0.00386719 1.58683594 -0.00773437 2.40429688 -0.01171875 C8.31086933 -0.00163067 8.31086933 -0.00163067 9.4375 1.125 C9.47813832 2.79117115 9.480221 4.45888095 9.4375 6.125 C8.798125 5.96 8.15875 5.795 7.5 5.625 C0.8703498 4.54260813 -4.78895109 4.2312112 -10.5625 8.125 C-15.45323922 13.2801035 -15.87470263 17.71394124 -15.7734375 24.58984375 C-15.44917568 28.48699039 -14.59036754 30.74522077 -12.5625 34.125 C-7.70417124 38.20775218 -4.23742965 38.65944516 1.8125 38.375 C2.54855469 38.35695313 3.28460938 38.33890625 4.04296875 38.3203125 C5.84171736 38.27359176 7.63978711 38.20186183 9.4375 38.125 C9.1075 39.775 8.7775 41.425 8.4375 43.125 C1.81803197 45.33148934 -6.3932785 45.06953116 -12.8125 42.234375 C-18.20900354 38.81337722 -20.91604162 34.1944443 -22.5625 28.125 C-23.27662625 21.43214234 -23.4733362 14.78071829 -19.9765625 8.84375 C-14.29901434 1.94286273 -8.63848539 -0.04231095 0 0 Z"/>
<path transform="translate(508,443)" fill="#70449F" d="M0 0 C3.42225162 0.88000756 3.97747185 1.9619352 5.8125 5.0625 C7.48815765 9.47260996 7.22436169 13.49097142 6 18 C3.9095937 21.85921163 2.76671291 22.76301601 -1.4375 24.0625 C-5 24 -5 24 -7.8125 22.375 C-10.79241536 19.13966332 -11.9416426 17.08026954 -12.06640625 12.6328125 C-11.84764364 8.16475198 -11.4178603 5.59694328 -8.8125 1.875 C-5.48108543 -0.34594305 -3.92721068 -0.58490372 0 0 Z"/>
<path transform="translate(543,439)" fill="#FDFCFD" d="M0 0 C0 1.65 0 3.3 0 5 C-1.11375 5.433125 -2.2275 5.86625 -3.375 6.3125 C-7.17512334 7.69911119 -7.17512334 7.69911119 -9 11 C-9.3650791 13.22131423 -9.3650791 13.22131423 -9.4140625 15.66796875 C-9.45273437 16.56064453 -9.49140625 17.45332031 -9.53125 18.37304688 C-9.5621875 19.30181641 -9.593125 20.23058594 -9.625 21.1875 C-9.66367187 22.12787109 -9.70234375 23.06824219 -9.7421875 24.03710938 C-9.83643187 26.3578771 -9.92204025 28.67863748 -10 31 C-11.65 31 -13.3 31 -15 31 C-15 21.1 -15 11.2 -15 1 C-13.68 1 -12.36 1 -11 1 C-11 2.65 -11 4.3 -11 6 C-10.34 6 -9.68 6 -9 6 C-8.8453125 5.071875 -8.8453125 5.071875 -8.6875 4.125 C-7.25616829 -0.29911619 -4.03097181 -0.21789037 0 0 Z"/>
<path transform="translate(397.5625,393)" fill="#F9F7FB" d="M0 0 C3.4375 1 3.4375 1 5.375 2.75 C6.67120853 5.49491218 6.96237013 7.00074212 6.4375 10 C4.875 12.3125 4.875 12.3125 2.4375 14 C-1.02480815 14.42519574 -3.3972167 14.63902633 -6.5 12.9375 C-8.20152633 9.8347167 -7.98769574 7.46230815 -7.5625 4 C-5.30132583 0.38212133 -4.292718 0 0 0 Z"/>
<path transform="translate(563,443)" fill="#754AA2" d="M0 0 C2.875 2.25 2.875 2.25 5 5 C5 6.32 5 7.64 5 9 C-0.61 9 -6.22 9 -12 9 C-10 3 -10 3 -8.25 1.125 C-5.18705028 -0.40647486 -3.38615656 -0.55284189 0 0 Z"/>
</svg>