<!-- created by svgstack.com | Attribution is required. --><svg width="70" height="80" viewBox="0 0 70 80" fill="none" xmlns="http://www.w3.org/2000/svg"><g clip-path="url(#clip0_202_1962)"><path d="M11.5 8C11.5 4.41015 14.4102 1.5 18 1.5H44.3787L68.5 25.6213V72C68.5 75.5899 65.5899 78.5 62 78.5H18C14.4101 78.5 11.5 75.5899 11.5 72V8Z" fill="white" stroke="#C8D2E1" style="fill:white;fill-opacity:1;stroke:#C8D2E1;stroke:color(display-p3 0.7836 0.8231 0.8824);stroke-opacity:1;" stroke-width="3"/><path d="M44 2V20C44 23.3137 46.6863 26 50 26H68" stroke="#C8D2E1" style="stroke:#C8D2E1;stroke:color(display-p3 0.7836 0.8231 0.8824);stroke-opacity:1;" stroke-width="3" stroke-linecap="round"/></g><rect y="38" width="67" height="32" rx="4" fill="#0DB664" style="fill:#0DB664;fill:color(display-p3 0.0520 0.7128 0.3934);fill-opacity:1;"/><path d="M6.39936 61V46.4545H9.47465V52.456H15.7175V46.4545H18.7857V61H15.7175V54.9915H9.47465V61H6.39936ZM20.3673 48.9901V46.4545H32.3133V48.9901H27.8602V61H24.8204V48.9901H20.3673ZM33.8806 46.4545H37.6732L41.6789 56.2273H41.8494L45.855 46.4545H49.6477V61H46.6647V51.5327H46.544L42.7798 60.929H40.7485L36.9843 51.4972H36.8636V61H33.8806V46.4545ZM51.7814 61V46.4545H54.8567V58.4645H61.0925V61H51.7814Z" fill="white" style="fill:white;fill-opacity:1;"/><defs><clipPath id="clip0_202_1962"><rect width="60" height="80" fill="white" style="fill:white;fill-opacity:1;" transform="translate(10)"/></clipPath></defs></svg> 